OFF 136 224 0
0.778072 1.65912 -0.0174999 
0.770823 1.6625 0.0174999 
0.778072 1.65912 0.0174999 
0.770823 1.6625 -0.0174999 
0.76962 1.64099 0.0174999 
0.76237 1.64437 0.0174999 
0.76237 1.64437 -0.0174999 
0.76962 1.64099 -0.0174999 
0.63051 1.72062 -0.0299997 
0.622993 1.72335 0.0299997 
0.63051 1.72062 0.0299997 
0.622993 1.72335 -0.0299997 
0.62367 1.70182 0.0299997 
0.616152 1.70456 0.0299997 
0.616152 1.70456 -0.0299997 
0.62367 1.70182 -0.0299997 
0.478149 1.76902 -0.0174999 
0.470422 1.77109 0.0174999 
0.478149 1.76902 0.0174999 
0.470422 1.77109 -0.0174999 
0.472973 1.7497 0.0174999 
0.465245 1.75178 0.0174999 
0.465245 1.75178 -0.0174999 
0.472973 1.7497 -0.0174999 
0.322149 1.80397 -0.0299997 
0.314271 1.80535 0.0299997 
0.322149 1.80397 0.0299997 
0.314271 1.80535 -0.0299997 
0.318676 1.78427 0.0299997 
0.310798 1.78566 0.0299997 
0.310798 1.78566 -0.0299997 
0.318676 1.78427 -0.0299997 
0.163697 1.82518 -0.0174999 
0.155727 1.82588 0.0174999 
0.163697 1.82518 0.0174999 
0.155727 1.82588 -0.0174999 
0.161954 1.80525 0.0174999 
0.153984 1.80595 0.0174999 
0.153984 1.80595 -0.0174999 
0.161954 1.80525 -0.0174999 
0.00749969 1.8325 0.0299997 
0.0043299 1.8325 0.0105662 
-0.00749969 1.8325 0.0299997 
0.00749969 1.8325 0 
-0.00749969 1.8325 -0.00914963 
0.00749969 1.8325 -0.0299997 
-0.00749969 1.8325 -0.0249996 
0.00749969 1.8325 -0.0249996 
-0.00749969 1.8325 -0.0299997 
0.00749969 1.8125 0.0299997 
-0.00749969 1.8125 0.0299997 
-0.00749969 1.82701 -0.0249996 
-0.00749969 1.8125 -0.0299997 
0.00749969 1.8125 -0.0299997 
0.00749969 1.82701 0 
0.00749969 1.81835 -0.0249996 
-0.155727 1.82588 0.0174999 
-0.161954 1.80525 0.0174999 
-0.153984 1.80595 0.0174999 
-0.163697 1.82518 0.0174999 
-0.155727 1.82588 -0.0174999 
-0.163697 1.82518 -0.0174999 
-0.161954 1.80525 -0.0174999 
-0.153984 1.80595 -0.0174999 
-0.314271 1.80535 0.0299997 
-0.318676 1.78427 0.0299997 
-0.310798 1.78566 0.0299997 
-0.322149 1.80397 0.0299997 
-0.314271 1.80535 -0.0299997 
-0.322149 1.80397 -0.0299997 
-0.318676 1.78427 -0.0299997 
-0.310798 1.78566 -0.0299997 
-0.470422 1.77109 0.0174999 
-0.472973 1.7497 0.0174999 
-0.465245 1.75178 0.0174999 
-0.478149 1.76902 0.0174999 
-0.470422 1.77109 -0.0174999 
-0.478149 1.76902 -0.0174999 
-0.465245 1.75178 -0.0174999 
-0.472973 1.7497 -0.0174999 
-0.622993 1.72335 0.0299997 
-0.62367 1.70182 0.0299997 
-0.616152 1.70456 0.0299997 
-0.63051 1.72062 0.0299997 
-0.622993 1.72335 -0.0299997 
-0.63051 1.72062 -0.0299997 
-0.62367 1.70182 -0.0299997 
-0.616152 1.70456 -0.0299997 
-0.770823 1.6625 0.0174999 
-0.76962 1.64099 0.0174999 
-0.76237 1.64437 0.0174999 
-0.778072 1.65912 0.0174999 
-0.770823 1.6625 -0.0174999 
-0.778072 1.65912 -0.0174999 
-0.76962 1.64099 -0.0174999 
-0.76237 1.64437 -0.0174999 
0.893749 1.54802 0.04 
0.90625 1.56967 -0.04 
0.90625 1.56967 0.04 
0.893749 1.54802 -0.04 
-0.893749 1.54802 -0.04 
-0.906249 1.56967 0.04 
-0.906249 1.56967 -0.04 
-0.893749 1.54802 0.04 
0.693613 1.67453 0.04 
0.693613 1.67453 -0.04 
0.684046 1.65143 -0.04 
0.684046 1.65143 0.04 
0.469109 1.75074 0.04 
0.469109 1.75074 -0.04 
0.462639 1.72659 -0.04 
0.462639 1.72659 0.04 
0.236578 1.79699 0.04 
0.236578 1.79699 -0.04 
0.233315 1.77221 -0.04 
0.233315 1.77221 0.04 
0 1.8125 0.04 
0 1.8125 -0.04 
0 1.7875 -0.04 
0 1.7875 0.04 
-0.236578 1.79699 0.04 
-0.236578 1.79699 -0.04 
-0.233315 1.77221 -0.04 
-0.233315 1.77221 0.04 
-0.469109 1.75074 0.04 
-0.469109 1.75074 -0.04 
-0.462639 1.72659 -0.04 
-0.462639 1.72659 0.04 
-0.693613 1.67453 0.04 
-0.693613 1.67453 -0.04 
-0.684046 1.65143 -0.04 
-0.684046 1.65143 0.04 
0 1.84 0.0249996 
-0.0299997 1.84 -0.0249996 
0.0149994 1.81402 -0.0249996 
0.0149994 1.86598 -0.0249996 
3 0 1 2
3 1 0 3
3 1 4 2
3 4 1 5
3 6 4 5
3 4 6 7
3 7 3 0
3 3 7 6
3 4 0 2
3 0 4 7
3 6 1 3
3 1 6 5
3 8 9 10
3 9 8 11
3 9 12 10
3 12 9 13
3 14 12 13
3 12 14 15
3 15 11 8
3 11 15 14
3 12 8 10
3 8 12 15
3 14 9 11
3 9 14 13
3 16 17 18
3 17 16 19
3 17 20 18
3 20 17 21
3 22 17 19
3 17 22 21
3 22 20 21
3 20 22 23
3 23 19 16
3 19 23 22
3 20 16 18
3 16 20 23
3 24 25 26
3 25 24 27
3 25 28 26
3 28 25 29
3 30 28 29
3 28 30 31
3 31 27 24
3 27 31 30
3 28 24 26
3 24 28 31
3 30 25 27
3 25 30 29
3 32 33 34
3 33 32 35
3 33 36 34
3 36 33 37
3 38 36 37
3 36 38 39
3 39 35 32
3 35 39 38
3 36 32 34
3 32 36 39
3 38 33 35
3 33 38 37
3 40 41 42
3 41 40 43
3 42 41 44
3 45 46 47
3 46 45 48
3 42 49 40
3 49 42 50
3 48 51 46
3 51 48 52
3 52 44 51
3 44 52 50
3 44 50 42
3 52 49 50
3 49 52 53
3 52 45 53
3 45 52 48
3 40 54 43
3 49 54 40
3 53 54 49
3 55 45 47
3 55 53 45
3 54 53 55
3 56 57 58
3 57 56 59
3 60 59 56
3 59 60 61
3 62 58 57
3 58 62 63
3 58 60 56
3 60 58 63
3 62 60 63
3 60 62 61
3 62 59 61
3 59 62 57
3 64 65 66
3 65 64 67
3 68 67 64
3 67 68 69
3 70 66 65
3 66 70 71
3 66 68 64
3 68 66 71
3 70 68 71
3 68 70 69
3 70 67 69
3 67 70 65
3 72 73 74
3 73 72 75
3 76 75 72
3 75 76 77
3 74 76 72
3 76 74 78
3 79 74 73
3 74 79 78
3 79 76 78
3 76 79 77
3 79 75 77
3 75 79 73
3 80 81 82
3 81 80 83
3 84 83 80
3 83 84 85
3 86 82 81
3 82 86 87
3 82 84 80
3 84 82 87
3 86 84 87
3 84 86 85
3 86 83 85
3 83 86 81
3 88 89 90
3 89 88 91
3 92 91 88
3 91 92 93
3 94 90 89
3 90 94 95
3 90 92 88
3 92 90 95
3 94 92 95
3 92 94 93
3 94 91 93
3 91 94 89
3 96 97 98
3 97 96 99
3 100 101 102
3 101 100 103
3 97 104 98
3 104 97 105
3 106 96 107
3 96 106 99
3 105 108 104
3 108 105 109
3 110 107 111
3 107 110 106
3 109 112 108
3 112 109 113
3 114 111 115
3 111 114 110
3 113 116 112
3 116 113 117
3 118 115 119
3 115 118 114
3 117 120 116
3 120 117 121
3 122 119 123
3 119 122 118
3 121 124 120
3 124 121 125
3 126 123 127
3 123 126 122
3 125 128 124
3 128 125 129
3 130 127 131
3 127 130 126
3 104 96 98
3 104 107 96
3 108 107 104
3 108 111 107
3 112 111 108
3 112 115 111
3 116 115 112
3 116 119 115
3 116 123 119
3 120 123 116
3 120 127 123
3 124 127 120
3 124 131 127
3 128 131 124
3 128 103 131
3 103 128 101
3 129 101 128
3 101 129 102
3 99 105 97
3 106 105 99
3 106 109 105
3 110 109 106
3 110 113 109
3 114 113 110
3 118 113 114
3 118 117 113
3 122 117 118
3 122 121 117
3 126 121 122
3 126 125 121
3 130 125 126
3 130 129 125
3 100 129 130
3 129 100 102
3 100 131 103
3 131 100 130
3 132 44 41
3 133 44 132
3 44 133 51
3 54 55 134
3 43 132 41
3 132 43 135
3 134 43 54
3 43 134 135
3 135 133 132
3 51 133 46
3 47 134 55
3 134 47 135
3 46 135 47
3 135 46 133
