OFF 248 480 0
-1.24 -0.174999 -0.0199995 
-1.16 -0.174999 0.0199995 
-1.24 -0.174999 0.0199995 
-1.16 -0.174999 -0.0199995 
-1.34767 0.222898 0.0199995 
-1.24 0.17374 0.0199995 
-1.29852 0.257314 0.0199995 
-1.24 0.0691338 0.0199995 
-1.215 0.0199995 0.0199995 
-1.185 -0.00999928 0.0199995 
-1.185 0.0199995 0.0199995 
-1.215 -0.00999928 0.0199995 
-1.16 0.174999 0.0199995 
-1.185 0.0999994 0.0199995 
-1.215 0.0999994 0.0199995 
-1.24 0.174999 0.0199995 
-1.185 -0.0899992 0.0199995 
-1.215 -0.0899992 0.0199995 
-1.16 0.174999 -0.0199995 
-1.24 0.174999 -0.0199995 
-1.24 0.17374 -0.0199995 
-1.24 0.0691338 -0.0199995 
-1.34767 0.222898 -0.0199995 
-1.29852 0.257314 -0.0199995 
-1.215 -0.00999928 -0.0199995 
-1.185 0.0199995 -0.0199995 
-1.185 -0.00999928 -0.0199995 
-1.215 0.0199995 -0.0199995 
-1.185 -0.0899992 -0.0199995 
-1.215 -0.0899992 -0.0199995 
-1.185 0.0999994 -0.0199995 
-1.215 0.0999994 -0.0199995 
1.24 0.174999 -0.0199995 
1.16 0.174999 0.0199995 
1.24 0.174999 0.0199995 
1.16 0.174999 -0.0199995 
1.185 0.00999928 0.0199995 
1.215 -0.0199995 0.0199995 
1.215 0.00999928 0.0199995 
1.185 -0.0199995 0.0199995 
1.215 0.0899992 0.0199995 
1.24 -0.0691338 0.0199995 
1.185 0.0899992 0.0199995 
1.16 -0.174999 0.0199995 
1.24 -0.17374 0.0199995 
1.34767 -0.222898 0.0199995 
1.29852 -0.257314 0.0199995 
1.215 -0.0999994 0.0199995 
1.185 -0.0999994 0.0199995 
1.24 -0.174999 0.0199995 
1.16 -0.174999 -0.0199995 
1.24 -0.174999 -0.0199995 
1.24 -0.17374 -0.0199995 
1.24 -0.0691338 -0.0199995 
1.185 -0.0199995 -0.0199995 
1.215 0.00999928 -0.0199995 
1.215 -0.0199995 -0.0199995 
1.185 0.00999928 -0.0199995 
1.215 -0.0999994 -0.0199995 
1.185 -0.0999994 -0.0199995 
1.34767 -0.222898 -0.0199995 
1.29852 -0.257314 -0.0199995 
1.215 0.0899992 -0.0199995 
1.185 0.0899992 -0.0199995 
-1.01 -0.549999 0.0299997 
-1.01304 -0.534692 -0.0299997 
-1.01304 -0.534692 0.0299997 
-1.01 -0.549999 -0.0299997 
-1.05 -0.509999 -0.0299997 
-1.06531 -0.513044 0.0299997 
-1.05 -0.509999 0.0299997 
-1.06531 -0.513044 -0.0299997 
-1.05 -0.589999 -0.0299997 
-1.03469 -0.586955 0.0299997 
-1.05 -0.589999 0.0299997 
-1.03469 -0.586955 -0.0299997 
-1.02172 -0.578284 0.0299997 
-1.02172 -0.578284 -0.0299997 
-1.02172 -0.521715 -0.0299997 
-1.03469 -0.513044 0.0299997 
-1.02172 -0.521715 0.0299997 
-1.03469 -0.513044 -0.0299997 
-1.08696 -0.534692 -0.0299997 
-1.07828 -0.521715 0.0299997 
-1.07828 -0.521715 -0.0299997 
-1.08696 -0.534692 0.0299997 
-1.01304 -0.565307 -0.0299997 
-1.06531 -0.586955 -0.0299997 
-1.07828 -0.578284 -0.0299997 
-1.08696 -0.565307 -0.0299997 
-1.09 -0.549999 -0.0299997 
-1.09 -0.549999 0.0299997 
-1.01304 -0.565307 0.0299997 
-1.06531 -0.586955 0.0299997 
-1.07828 -0.578284 0.0299997 
-1.08696 -0.565307 0.0299997 
-1.01 0.549999 0.0299997 
-1.01304 0.565307 -0.0299997 
-1.01304 0.565307 0.0299997 
-1.01 0.549999 -0.0299997 
-1.05 0.509999 -0.0299997 
-1.03469 0.513044 0.0299997 
-1.05 0.509999 0.0299997 
-1.03469 0.513044 -0.0299997 
-1.05 0.589999 -0.0299997 
-1.06531 0.586955 0.0299997 
-1.05 0.589999 0.0299997 
-1.06531 0.586955 -0.0299997 
-1.02172 0.521715 0.0299997 
-1.01304 0.534692 -0.0299997 
-1.01304 0.534692 0.0299997 
-1.02172 0.521715 -0.0299997 
-1.02172 0.578284 -0.0299997 
-1.03469 0.586955 0.0299997 
-1.02172 0.578284 0.0299997 
-1.03469 0.586955 -0.0299997 
-1.08696 0.565307 -0.0299997 
-1.07828 0.578284 0.0299997 
-1.07828 0.578284 -0.0299997 
-1.08696 0.565307 0.0299997 
-1.06531 0.513044 -0.0299997 
-1.07828 0.521715 -0.0299997 
-1.08696 0.534692 -0.0299997 
-1.09 0.549999 -0.0299997 
-1.09 0.549999 0.0299997 
-1.06531 0.513044 0.0299997 
-1.07828 0.521715 0.0299997 
-1.08696 0.534692 0.0299997 
1.09 -0.549999 0.0299997 
1.08696 -0.534692 -0.0299997 
1.08696 -0.534692 0.0299997 
1.09 -0.549999 -0.0299997 
1.01 -0.549999 -0.0299997 
1.01304 -0.534692 0.0299997 
1.01304 -0.534692 -0.0299997 
1.01 -0.549999 0.0299997 
1.01304 -0.565307 -0.0299997 
1.01304 -0.565307 0.0299997 
1.06531 -0.513044 -0.0299997 
1.05 -0.509999 0.0299997 
1.06531 -0.513044 0.0299997 
1.05 -0.509999 -0.0299997 
1.07828 -0.521715 -0.0299997 
1.07828 -0.521715 0.0299997 
1.08696 -0.565307 -0.0299997 
1.07828 -0.578284 -0.0299997 
1.06531 -0.586955 -0.0299997 
1.05 -0.589999 -0.0299997 
1.03469 -0.586955 -0.0299997 
1.03469 -0.513044 -0.0299997 
1.02172 -0.578284 -0.0299997 
1.02172 -0.521715 -0.0299997 
1.03469 -0.513044 0.0299997 
1.02172 -0.521715 0.0299997 
1.08696 -0.565307 0.0299997 
1.07828 -0.578284 0.0299997 
1.06531 -0.586955 0.0299997 
1.05 -0.589999 0.0299997 
1.03469 -0.586955 0.0299997 
1.02172 -0.578284 0.0299997 
1.09 0.549999 0.0299997 
1.08696 0.565307 -0.0299997 
1.08696 0.565307 0.0299997 
1.09 0.549999 -0.0299997 
1.01 0.549999 -0.0299997 
1.01304 0.565307 0.0299997 
1.01304 0.565307 -0.0299997 
1.01 0.549999 0.0299997 
1.05 0.589999 -0.0299997 
1.03469 0.586955 0.0299997 
1.05 0.589999 0.0299997 
1.03469 0.586955 -0.0299997 
1.02172 0.578284 0.0299997 
1.02172 0.578284 -0.0299997 
1.08696 0.534692 -0.0299997 
1.07828 0.521715 -0.0299997 
1.07828 0.578284 -0.0299997 
1.06531 0.513044 -0.0299997 
1.06531 0.586955 -0.0299997 
1.05 0.509999 -0.0299997 
1.03469 0.513044 -0.0299997 
1.02172 0.521715 -0.0299997 
1.01304 0.534692 -0.0299997 
1.06531 0.586955 0.0299997 
1.07828 0.578284 0.0299997 
1.08696 0.534692 0.0299997 
1.07828 0.521715 0.0299997 
1.06531 0.513044 0.0299997 
1.05 0.509999 0.0299997 
1.03469 0.513044 0.0299997 
1.02172 0.521715 0.0299997 
1.01304 0.534692 0.0299997 
0.845236 2.41261 0.019989 
0.866362 2.45792 -0.00999451 
0.866362 2.45792 0.00999451 
0.845236 2.41261 -0.019989 
-0.845236 2.41261 -0.019989 
-0.866362 2.45792 0.00999451 
-0.866362 2.45792 -0.00999451 
-0.845236 2.41261 0.019989 
0.573606 2.51598 -0.019989 
0.573606 2.51598 0.019989 
0.587943 2.56387 0.00999451 
0.587943 2.56387 -0.00999451 
0.289864 2.57888 -0.019989 
0.289864 2.57888 0.019989 
0.297108 2.62834 0.00999451 
0.297108 2.62834 -0.00999451 
0 2.6 -0.019989 
0 2.6 0.019989 
0 2.64999 0.00999451 
0 2.64999 -0.00999451 
-0.289864 2.57888 -0.019989 
-0.289864 2.57888 0.019989 
-0.297108 2.62834 0.00999451 
-0.297108 2.62834 -0.00999451 
-0.573606 2.51598 -0.019989 
-0.573606 2.51598 0.019989 
-0.587943 2.56387 0.00999451 
-0.587943 2.56387 -0.00999451 
-0.866362 -2.45792 -0.00999451 
-0.845236 -2.41261 0.019989 
-0.845236 -2.41261 -0.019989 
-0.866362 -2.45792 0.00999451 
0.866362 -2.45792 0.00999451 
0.845236 -2.41261 -0.019989 
0.845236 -2.41261 0.019989 
0.866362 -2.45792 -0.00999451 
-0.573606 -2.51598 -0.019989 
-0.573606 -2.51598 0.019989 
-0.587943 -2.56387 0.00999451 
-0.587943 -2.56387 -0.00999451 
-0.289864 -2.57888 -0.019989 
-0.289864 -2.57888 0.019989 
-0.297108 -2.62834 0.00999451 
-0.297108 -2.62834 -0.00999451 
0 -2.6 -0.019989 
0 -2.6 0.019989 
0 -2.64999 0.00999451 
0 -2.64999 -0.00999451 
0.289864 -2.57888 -0.019989 
0.289864 -2.57888 0.019989 
0.297108 -2.62834 0.00999451 
0.297108 -2.62834 -0.00999451 
0.573606 -2.51598 -0.019989 
0.573606 -2.51598 0.019989 
0.587943 -2.56387 0.00999451 
0.587943 -2.56387 -0.00999451 
3 0 1 2
3 1 0 3
3 4 5 6
3 5 4 7
3 8 9 10
3 9 8 11
3 10 12 13
3 5 13 12
3 7 8 14
3 8 7 11
3 13 5 14
3 5 12 15
3 12 10 1
3 9 1 10
3 16 1 9
3 17 1 16
3 7 14 5
3 11 7 17
3 17 2 1
3 2 17 7
3 18 15 12
3 15 18 19
3 20 15 19
3 15 20 5
3 0 7 21
3 7 0 2
3 22 20 21
3 20 22 23
3 24 25 26
3 25 24 27
3 26 3 28
3 3 29 28
3 21 24 29
3 24 21 27
3 21 29 0
3 0 29 3
3 3 26 18
3 25 18 26
3 30 18 25
3 20 30 31
3 27 21 31
3 20 31 21
3 30 20 18
3 18 20 19
3 1 18 12
3 18 1 3
3 23 4 6
3 4 23 22
3 5 23 6
3 23 5 20
3 21 4 22
3 4 21 7
3 28 17 16
3 17 28 29
3 24 9 11
3 9 24 26
3 28 9 26
3 9 28 16
3 17 24 11
3 24 17 29
3 25 8 10
3 8 25 27
3 31 13 14
3 13 31 30
3 8 31 14
3 31 8 27
3 25 13 30
3 13 25 10
3 32 33 34
3 33 32 35
3 36 37 38
3 37 36 39
3 40 41 34
3 37 41 38
3 41 40 38
3 34 42 40
3 33 36 42
3 36 33 39
3 39 33 43
3 33 42 34
3 44 45 41
3 45 44 46
3 47 41 37
3 41 47 44
3 48 44 47
3 43 44 48
3 44 43 49
3 39 43 48
3 50 49 43
3 49 50 51
3 49 52 44
3 52 49 51
3 41 32 34
3 32 41 53
3 54 55 56
3 55 54 57
3 50 52 51
3 52 58 53
3 53 58 56
3 52 59 58
3 50 54 59
3 54 50 57
3 35 57 50
3 52 50 59
3 52 60 61
3 60 52 53
3 55 53 56
3 62 53 55
3 53 62 32
3 63 32 62
3 63 35 32
3 57 35 63
3 50 33 35
3 33 50 43
3 61 45 46
3 45 61 60
3 61 44 52
3 44 61 46
3 45 53 41
3 53 45 60
3 63 40 42
3 40 63 62
3 55 36 38
3 36 55 57
3 36 63 42
3 63 36 57
3 55 40 62
3 40 55 38
3 54 37 39
3 37 54 56
3 58 48 47
3 48 58 59
3 58 37 56
3 37 58 47
3 48 54 39
3 54 48 59
3 64 65 66
3 65 64 67
3 68 69 70
3 69 68 71
3 72 73 74
3 73 72 75
3 75 76 73
3 76 75 77
3 78 79 80
3 79 78 81
3 66 78 80
3 78 66 65
3 81 70 79
3 70 81 68
3 82 83 84
3 83 82 85
3 86 65 67
3 77 65 86
3 77 78 65
3 75 78 77
3 75 81 78
3 72 81 75
3 72 68 81
3 87 68 72
3 87 71 68
3 88 71 87
3 88 84 71
3 89 84 88
3 89 82 84
3 82 89 90
3 90 85 82
3 85 90 91
3 66 92 64
3 80 92 66
3 80 76 92
3 79 76 80
3 79 73 76
3 70 73 79
3 70 74 73
3 69 74 70
3 69 93 74
3 83 93 69
3 83 94 93
3 85 94 83
3 85 95 94
3 95 85 91
3 71 83 69
3 83 71 84
3 87 74 93
3 74 87 72
3 88 95 89
3 95 88 94
3 89 91 90
3 91 89 95
3 76 86 92
3 86 76 77
3 92 67 64
3 67 92 86
3 88 93 94
3 93 88 87
3 96 97 98
3 97 96 99
3 100 101 102
3 101 100 103
3 104 105 106
3 105 104 107
3 108 109 110
3 109 108 111
3 112 113 114
3 113 112 115
3 98 112 114
3 112 98 97
3 115 106 113
3 106 115 104
3 116 117 118
3 117 116 119
3 109 97 99
3 111 97 109
3 111 112 97
3 103 112 111
3 103 115 112
3 100 115 103
3 100 104 115
3 120 104 100
3 120 107 104
3 121 107 120
3 121 118 107
3 122 118 121
3 122 116 118
3 116 122 123
3 123 119 116
3 119 123 124
3 98 110 96
3 114 110 98
3 114 108 110
3 113 108 114
3 113 101 108
3 106 101 113
3 106 102 101
3 105 102 106
3 105 125 102
3 117 125 105
3 117 126 125
3 119 126 117
3 119 127 126
3 127 119 124
3 107 117 105
3 117 107 118
3 110 99 96
3 99 110 109
3 121 127 122
3 127 121 126
3 122 124 123
3 124 122 127
3 103 108 101
3 108 103 111
3 120 102 125
3 102 120 100
3 121 125 126
3 125 121 120
3 128 129 130
3 129 128 131
3 132 133 134
3 133 132 135
3 136 135 132
3 135 136 137
3 138 139 140
3 139 138 141
3 130 142 143
3 142 130 129
3 144 129 131
3 145 129 144
3 145 142 129
3 146 142 145
3 146 138 142
3 147 138 146
3 147 141 138
3 148 141 147
3 148 149 141
3 150 149 148
3 150 151 149
3 136 151 150
3 136 134 151
3 134 136 132
3 142 140 143
3 140 142 138
3 141 152 139
3 152 141 149
3 134 153 151
3 153 134 133
3 149 153 152
3 153 149 151
3 130 154 128
3 143 154 130
3 143 155 154
3 140 155 143
3 140 156 155
3 139 156 140
3 139 157 156
3 152 157 139
3 152 158 157
3 153 158 152
3 153 159 158
3 133 159 153
3 133 137 159
3 137 133 135
3 146 155 156
3 155 146 145
3 155 144 154
3 144 155 145
3 154 131 128
3 131 154 144
3 150 158 159
3 158 150 148
3 150 137 136
3 137 150 159
3 147 156 157
3 156 147 146
3 148 157 158
3 157 148 147
3 160 161 162
3 161 160 163
3 164 165 166
3 165 164 167
3 168 169 170
3 169 168 171
3 171 172 169
3 172 171 173
3 174 161 163
3 175 161 174
3 175 176 161
3 177 176 175
3 177 178 176
3 179 178 177
3 179 168 178
3 180 168 179
3 180 171 168
3 181 171 180
3 181 173 171
3 182 173 181
3 182 166 173
3 166 182 164
3 176 183 184
3 183 176 178
3 162 176 184
3 176 162 161
3 178 170 183
3 170 178 168
3 166 172 173
3 172 166 165
3 162 185 160
3 184 185 162
3 184 186 185
3 183 186 184
3 183 187 186
3 170 187 183
3 170 188 187
3 169 188 170
3 169 189 188
3 172 189 169
3 172 190 189
3 165 190 172
3 165 191 190
3 191 165 167
3 179 187 188
3 187 179 177
3 186 174 185
3 174 186 175
3 181 189 190
3 189 181 180
3 182 167 164
3 167 182 191
3 185 163 160
3 163 185 174
3 177 186 187
3 186 177 175
3 180 188 189
3 188 180 179
3 181 191 182
3 191 181 190
3 192 193 194
3 193 192 195
3 196 197 198
3 197 196 199
3 200 192 201
3 192 200 195
3 192 194 202
3 192 202 201
3 193 202 194
3 202 193 203
3 193 195 200
3 203 193 200
3 204 201 205
3 201 204 200
3 201 202 206
3 201 206 205
3 203 206 202
3 206 203 207
3 203 200 204
3 207 203 204
3 208 205 209
3 205 208 204
3 205 206 210
3 205 210 209
3 207 210 206
3 210 207 211
3 207 204 208
3 211 207 208
3 212 209 213
3 209 212 208
3 209 210 214
3 213 209 214
3 211 214 210
3 214 211 215
3 211 208 212
3 211 212 215
3 216 213 217
3 213 216 212
3 213 214 218
3 217 213 218
3 215 218 214
3 218 215 219
3 215 212 216
3 215 216 219
3 196 217 199
3 217 196 216
3 217 218 197
3 199 217 197
3 219 197 218
3 197 219 198
3 219 216 196
3 219 196 198
3 220 221 222
3 221 220 223
3 224 225 226
3 225 224 227
3 228 221 229
3 221 228 222
3 230 221 223
3 230 229 221
3 220 230 223
3 230 220 231
3 222 228 220
3 228 231 220
3 232 229 233
3 229 232 228
3 234 229 230
3 234 233 229
3 231 234 230
3 234 231 235
3 228 232 231
3 232 235 231
3 236 233 237
3 233 236 232
3 238 233 234
3 238 237 233
3 235 238 234
3 238 235 239
3 232 236 235
3 236 239 235
3 240 237 241
3 237 240 236
3 242 237 238
3 242 241 237
3 239 242 238
3 242 239 243
3 236 240 239
3 240 243 239
3 244 241 245
3 241 244 240
3 242 246 241
3 246 245 241
3 243 246 242
3 246 243 247
3 244 243 240
3 244 247 243
3 225 245 226
3 245 225 244
3 246 224 245
3 224 226 245
3 247 224 246
3 224 247 227
3 225 247 244
3 225 227 247
