OFF 352 664 0
0.579555 0.155291 0.00999928 
0.538123 0.265373 -0.00999928 
0.538123 0.265373 0.00999928 
0.579555 0.155291 -0.00999928 
0.0392419 -0.598715 -0.00999928 
0.155291 -0.579555 0.00999928 
0.0392419 -0.598715 0.00999928 
0.155291 -0.579555 -0.00999928 
0.395607 0.451103 -0.00999928 
0.3 0.519615 0.00999928 
0.395607 0.451103 0.00999928 
0.3 0.519615 -0.00999928 
0.451103 -0.395607 0.00999928 
0.519615 -0.3 -0.00999928 
0.519615 -0.3 0.00999928 
0.451103 -0.395607 -0.00999928 
0.594866 -0.0783153 -0.00999928 
0.555209 -0.0730941 -0.00999928 
0.5588 0.0366261 -0.00999928 
0.568158 -0.192863 -0.00999928 
0.530281 -0.180006 -0.00999928 
0.484973 -0.279999 -0.00999928 
0.42103 -0.369234 -0.00999928 
0.365256 -0.476011 -0.00999928 
0.340906 -0.444278 -0.00999928 
0.265373 -0.538123 -0.00999928 
0.247681 -0.502248 -0.00999928 
0.144939 -0.540918 -0.00999928 
0.0366261 -0.5588 -0.00999928 
-0.0730941 -0.555209 -0.00999928 
-0.0783153 -0.594866 -0.00999928 
-0.180006 -0.530281 -0.00999928 
-0.192863 -0.568158 -0.00999928 
-0.279999 -0.484973 -0.00999928 
-0.3 -0.519615 -0.00999928 
-0.369234 -0.42103 -0.00999928 
-0.395607 -0.451103 -0.00999928 
-0.444278 -0.340906 -0.00999928 
-0.476011 -0.365256 -0.00999928 
-0.502248 -0.247681 -0.00999928 
-0.538123 -0.265373 -0.00999928 
-0.540918 -0.144939 -0.00999928 
-0.579555 -0.155291 -0.00999928 
-0.5588 -0.0366261 -0.00999928 
-0.598715 -0.0392419 -0.00999928 
-0.594866 0.0783153 -0.00999928 
-0.568158 0.192863 -0.00999928 
0.598715 0.0392419 -0.00999928 
0.540918 0.144939 -0.00999928 
0.502248 0.247681 -0.00999928 
0.476011 0.365256 -0.00999928 
0.444278 0.340906 -0.00999928 
0.369234 0.42103 -0.00999928 
0.279999 0.484973 -0.00999928 
0.192863 0.568158 -0.00999928 
0.180006 0.530281 -0.00999928 
0.0783153 0.594866 -0.00999928 
0.0730941 0.555209 -0.00999928 
-0.0366261 0.5588 -0.00999928 
-0.0392419 0.598715 -0.00999928 
-0.144939 0.540918 -0.00999928 
-0.155291 0.579555 -0.00999928 
-0.247681 0.502248 -0.00999928 
-0.265373 0.538123 -0.00999928 
-0.340906 0.444278 -0.00999928 
-0.365256 0.476011 -0.00999928 
-0.42103 0.369234 -0.00999928 
-0.451103 0.395607 -0.00999928 
-0.484973 0.279999 -0.00999928 
-0.519615 0.3 -0.00999928 
-0.530281 0.180006 -0.00999928 
-0.555209 0.0730941 -0.00999928 
0.476011 0.365256 0.00999928 
0.0783153 0.594866 0.00999928 
0.192863 0.568158 0.00999928 
0.598715 0.0392419 0.00999928 
0.265373 -0.538123 0.00999928 
0.365256 -0.476011 0.00999928 
-0.0783153 -0.594866 0.00999928 
0.568158 -0.192863 0.00999928 
-0.192863 -0.568158 0.00999928 
0.5588 0.0366261 0.00999928 
0.594866 -0.0783153 0.00999928 
0.555209 -0.0730941 0.00999928 
0.540918 0.144939 0.00999928 
0.502248 0.247681 0.00999928 
0.444278 0.340906 0.00999928 
0.369234 0.42103 0.00999928 
0.279999 0.484973 0.00999928 
0.180006 0.530281 0.00999928 
0.0730941 0.555209 0.00999928 
-0.0366261 0.5588 0.00999928 
-0.0392419 0.598715 0.00999928 
-0.144939 0.540918 0.00999928 
-0.155291 0.579555 0.00999928 
-0.247681 0.502248 0.00999928 
-0.265373 0.538123 0.00999928 
-0.340906 0.444278 0.00999928 
-0.365256 0.476011 0.00999928 
-0.42103 0.369234 0.00999928 
-0.451103 0.395607 0.00999928 
-0.484973 0.279999 0.00999928 
-0.519615 0.3 0.00999928 
-0.530281 0.180006 0.00999928 
-0.568158 0.192863 0.00999928 
-0.594866 0.0783153 0.00999928 
-0.555209 0.0730941 0.00999928 
0.530281 -0.180006 0.00999928 
0.484973 -0.279999 0.00999928 
0.42103 -0.369234 0.00999928 
0.340906 -0.444278 0.00999928 
0.247681 -0.502248 0.00999928 
0.144939 -0.540918 0.00999928 
0.0366261 -0.5588 0.00999928 
-0.0730941 -0.555209 0.00999928 
-0.180006 -0.530281 0.00999928 
-0.279999 -0.484973 0.00999928 
-0.3 -0.519615 0.00999928 
-0.369234 -0.42103 0.00999928 
-0.395607 -0.451103 0.00999928 
-0.444278 -0.340906 0.00999928 
-0.476011 -0.365256 0.00999928 
-0.502248 -0.247681 0.00999928 
-0.538123 -0.265373 0.00999928 
-0.540918 -0.144939 0.00999928 
-0.579555 -0.155291 0.00999928 
-0.5588 -0.0366261 0.00999928 
-0.598715 -0.0392419 0.00999928 
0.226274 0.226274 -0.00999928 
0.177782 0.266069 0.00999928 
0.226274 0.226274 0.00999928 
0.177782 0.266069 -0.00999928 
-0.122458 -0.295641 -0.00999928 
-0.0624285 -0.31385 0.00999928 
-0.122458 -0.295641 0.00999928 
-0.0624285 -0.31385 -0.00999928 
0.31385 0.0624285 0.00999928 
0.295641 0.122458 -0.00999928 
0.295641 0.122458 0.00999928 
0.31385 0.0624285 -0.00999928 
-0.0624285 0.31385 -0.00999928 
-0.122458 0.295641 0.00999928 
-0.0624285 0.31385 0.00999928 
-0.122458 0.295641 -0.00999928 
-0.295641 0.122458 -0.00999928 
-0.266069 0.177782 0.00999928 
-0.266069 0.177782 -0.00999928 
-0.295641 0.122458 0.00999928 
-0.266069 -0.177782 -0.00999928 
-0.295641 -0.122458 0.00999928 
-0.295641 -0.122458 -0.00999928 
-0.266069 -0.177782 0.00999928 
0.266069 0.177782 -0.00999928 
0.266069 0.177782 0.00999928 
0.122458 0.295641 0.00999928 
0.122458 0.295641 -0.00999928 
0.0624285 0.31385 -0.00999928 
0 0.32 0.00999928 
0.0624285 0.31385 0.00999928 
0 0.32 -0.00999928 
-0.32 0 -0.00999928 
-0.31385 0.0624285 0.00999928 
-0.31385 0.0624285 -0.00999928 
-0.32 0 0.00999928 
-0.226274 0.226274 0.00999928 
-0.226274 0.226274 -0.00999928 
-0.177782 0.266069 0.00999928 
-0.177782 0.266069 -0.00999928 
0.32 0 0.00999928 
0.32 0 -0.00999928 
0 -0.32 -0.00999928 
0.0624285 -0.31385 0.00999928 
0 -0.32 0.00999928 
0.0624285 -0.31385 -0.00999928 
0.122458 -0.295641 0.00999928 
0.122458 -0.295641 -0.00999928 
0.177782 -0.266069 0.00999928 
0.177782 -0.266069 -0.00999928 
0.226274 -0.226274 0.00999928 
0.266069 -0.177782 -0.00999928 
0.266069 -0.177782 0.00999928 
0.226274 -0.226274 -0.00999928 
-0.177782 -0.266069 -0.00999928 
-0.177782 -0.266069 0.00999928 
-0.226274 -0.226274 -0.00999928 
-0.226274 -0.226274 0.00999928 
-0.31385 -0.0624285 -0.00999928 
-0.31385 -0.0624285 0.00999928 
0.299999 0 -0.00999928 
0.31385 -0.0624285 -0.00999928 
0.294235 -0.058527 -0.00999928 
0.295641 -0.122458 -0.00999928 
0.277164 -0.114804 -0.00999928 
0.24944 -0.166671 -0.00999928 
0.212132 -0.212132 -0.00999928 
0.166671 -0.24944 -0.00999928 
0.114804 -0.277164 -0.00999928 
0.058527 -0.294235 -0.00999928 
0 -0.299999 -0.00999928 
-0.058527 -0.294235 -0.00999928 
-0.114804 -0.277164 -0.00999928 
-0.166671 -0.24944 -0.00999928 
-0.212132 -0.212132 -0.00999928 
-0.24944 -0.166671 -0.00999928 
-0.277164 -0.114804 -0.00999928 
-0.294235 -0.058527 -0.00999928 
-0.299999 0 -0.00999928 
0.294235 0.058527 -0.00999928 
0.277164 0.114804 -0.00999928 
0.24944 0.166671 -0.00999928 
0.212132 0.212132 -0.00999928 
0.166671 0.24944 -0.00999928 
0.114804 0.277164 -0.00999928 
0.058527 0.294235 -0.00999928 
0 0.299999 -0.00999928 
-0.058527 0.294235 -0.00999928 
-0.114804 0.277164 -0.00999928 
-0.166671 0.24944 -0.00999928 
-0.212132 0.212132 -0.00999928 
-0.24944 0.166671 -0.00999928 
-0.277164 0.114804 -0.00999928 
-0.294235 0.058527 -0.00999928 
0.299999 0 0.00999928 
0.31385 -0.0624285 0.00999928 
0.294235 0.058527 0.00999928 
0.277164 0.114804 0.00999928 
0.24944 0.166671 0.00999928 
0.212132 0.212132 0.00999928 
0.166671 0.24944 0.00999928 
0.114804 0.277164 0.00999928 
0.058527 0.294235 0.00999928 
0 0.299999 0.00999928 
-0.058527 0.294235 0.00999928 
-0.114804 0.277164 0.00999928 
-0.166671 0.24944 0.00999928 
-0.212132 0.212132 0.00999928 
-0.24944 0.166671 0.00999928 
-0.277164 0.114804 0.00999928 
-0.294235 0.058527 0.00999928 
-0.299999 0 0.00999928 
0.294235 -0.058527 0.00999928 
0.295641 -0.122458 0.00999928 
0.277164 -0.114804 0.00999928 
0.24944 -0.166671 0.00999928 
0.212132 -0.212132 0.00999928 
0.166671 -0.24944 0.00999928 
0.114804 -0.277164 0.00999928 
0.058527 -0.294235 0.00999928 
0 -0.299999 0.00999928 
-0.058527 -0.294235 0.00999928 
-0.114804 -0.277164 0.00999928 
-0.166671 -0.24944 0.00999928 
-0.212132 -0.212132 0.00999928 
-0.24944 -0.166671 0.00999928 
-0.277164 -0.114804 0.00999928 
-0.294235 -0.058527 0.00999928 
0.339999 -0.00999928 -0.00999928 
0.339999 0.00999928 0.00999928 
0.339999 0.00999928 -0.00999928 
0.339999 -0.00999928 0.00999928 
0.5 -0.00999928 0.00999928 
0.5 0.00999928 0.00999928 
0.5 0.00999928 -0.00999928 
0.5 -0.00999928 -0.00999928 
0.00999928 0.5 -0.00999928 
-0.00999928 0.5 0.00999928 
0.00999928 0.5 0.00999928 
-0.00999928 0.5 -0.00999928 
0.00999928 0.339999 0.00999928 
-0.00999928 0.339999 0.00999928 
-0.00999928 0.339999 -0.00999928 
0.00999928 0.339999 -0.00999928 
-0.5 0.00999928 0.00999928 
-0.339999 -0.00999928 0.00999928 
-0.339999 0.00999928 0.00999928 
-0.5 -0.00999928 0.00999928 
-0.5 -0.00999928 -0.00999928 
-0.5 0.00999928 -0.00999928 
-0.339999 0.00999928 -0.00999928 
-0.339999 -0.00999928 -0.00999928 
-0.00999928 -0.339999 0.00999928 
0.00999928 -0.5 0.00999928 
0.00999928 -0.339999 0.00999928 
-0.00999928 -0.5 0.00999928 
0.00999928 -0.339999 -0.00999928 
-0.00999928 -0.339999 -0.00999928 
-0.00999928 -0.5 -0.00999928 
0.00999928 -0.5 -0.00999928 
-0.0299997 -0.226 -0.00999928 
-0.0299997 -0.214 0.00999928 
-0.0299997 -0.214 -0.00999928 
-0.0299997 -0.226 0.00999928 
0.0299997 -0.226 0.00999928 
0.0299997 -0.214 0.00999928 
0.0299997 -0.214 -0.00999928 
0.0299997 -0.226 -0.00999928 
-0.0299997 -0.155999 -0.00999928 
-0.0299997 -0.143999 0.00999928 
-0.0299997 -0.143999 -0.00999928 
-0.0299997 -0.155999 0.00999928 
0.0299997 -0.155999 0.00999928 
0.0299997 -0.143999 0.00999928 
0.0299997 -0.143999 -0.00999928 
0.0299997 -0.155999 -0.00999928 
-0.0299997 -0.0859995 -0.00999928 
-0.0299997 -0.0739994 0.00999928 
-0.0299997 -0.0739994 -0.00999928 
-0.0299997 -0.0859995 0.00999928 
0.0299997 -0.0859995 0.00999928 
0.0299997 -0.0739994 0.00999928 
0.0299997 -0.0739994 -0.00999928 
0.0299997 -0.0859995 -0.00999928 
-0.0299997 0.0739994 -0.00999928 
-0.0299997 0.0859995 0.00999928 
-0.0299997 0.0859995 -0.00999928 
-0.0299997 0.0739994 0.00999928 
0.0299997 0.0739994 0.00999928 
0.0299997 0.0859995 0.00999928 
0.0299997 0.0859995 -0.00999928 
0.0299997 0.0739994 -0.00999928 
-0.0299997 0.143999 -0.00999928 
-0.0299997 0.155999 0.00999928 
-0.0299997 0.155999 -0.00999928 
-0.0299997 0.143999 0.00999928 
0.0299997 0.143999 0.00999928 
0.0299997 0.155999 0.00999928 
0.0299997 0.155999 -0.00999928 
0.0299997 0.143999 -0.00999928 
-0.0299997 0.214 -0.00999928 
-0.0299997 0.226 0.00999928 
-0.0299997 0.226 -0.00999928 
-0.0299997 0.214 0.00999928 
0.0299997 0.214 0.00999928 
0.0299997 0.226 0.00999928 
0.0299997 0.226 -0.00999928 
0.0299997 0.214 -0.00999928 
0 -0.0565685 -0.00999928 
-0.0565685 0 0.00999928 
-0.0565685 0 -0.00999928 
0 -0.0565685 0.00999928 
0 0.0565685 0.00999928 
0.0353548 0 0.00999928 
0.0565685 0 0.00999928 
0 0.0353548 0.00999928 
-0.0353548 0 0.00999928 
0 -0.0353548 0.00999928 
0 0.0565685 -0.00999928 
0.0565685 0 -0.00999928 
0.0353548 0 -0.00999928 
0 -0.0353548 -0.00999928 
-0.0353548 0 -0.00999928 
0 0.0353548 -0.00999928 
3 0 1 2
3 1 0 3
3 4 5 6
3 5 4 7
3 8 9 10
3 9 8 11
3 12 13 14
3 13 12 15
3 16 17 18
3 19 20 17
3 13 20 19
3 13 21 20
3 15 21 13
3 15 22 21
3 23 22 15
3 23 24 22
3 25 24 23
3 25 26 24
3 7 26 25
3 7 27 26
3 4 27 7
3 4 28 27
3 4 29 28
3 30 29 4
3 30 31 29
3 32 31 30
3 32 33 31
3 34 33 32
3 34 35 33
3 36 35 34
3 36 37 35
3 38 37 36
3 38 39 37
3 40 39 38
3 40 41 39
3 42 41 40
3 41 42 43
3 44 43 42
3 43 45 46
3 43 44 45
3 18 47 16
3 17 16 19
3 47 18 3
3 48 3 18
3 48 1 3
3 49 1 48
3 49 50 1
3 51 50 49
3 51 8 50
3 52 8 51
3 52 11 8
3 53 11 52
3 53 54 11
3 55 54 53
3 55 56 54
3 57 56 55
3 58 56 57
3 58 59 56
3 60 59 58
3 60 61 59
3 62 61 60
3 62 63 61
3 64 63 62
3 64 65 63
3 66 65 64
3 66 67 65
3 68 67 66
3 68 69 67
3 70 69 68
3 46 70 71
3 70 46 69
3 46 71 43
3 72 8 10
3 8 72 50
3 2 50 72
3 50 2 1
3 54 73 74
3 73 54 56
3 11 74 9
3 74 11 54
3 75 3 0
3 3 75 47
3 7 76 5
3 76 7 25
3 23 12 77
3 12 23 15
3 30 6 78
3 6 30 4
3 25 77 76
3 77 25 23
3 14 19 79
3 19 14 13
3 32 78 80
3 78 32 30
3 81 75 0
3 75 81 82
3 83 82 81
3 0 84 81
3 2 84 0
3 2 85 84
3 72 85 2
3 72 86 85
3 10 86 72
3 10 87 86
3 9 87 10
3 9 88 87
3 74 88 9
3 74 89 88
3 73 89 74
3 73 90 89
3 73 91 90
3 92 91 73
3 92 93 91
3 94 93 92
3 94 95 93
3 96 95 94
3 96 97 95
3 98 97 96
3 98 99 97
3 100 99 98
3 100 101 99
3 102 101 100
3 102 103 101
3 104 103 102
3 105 106 104
3 103 104 106
3 82 83 79
3 107 79 83
3 107 14 79
3 108 14 107
3 108 12 14
3 109 12 108
3 109 77 12
3 110 77 109
3 110 76 77
3 111 76 110
3 111 5 76
3 112 5 111
3 112 6 5
3 113 6 112
3 114 6 113
3 114 78 6
3 115 78 114
3 115 80 78
3 116 80 115
3 116 117 80
3 118 117 116
3 118 119 117
3 120 119 118
3 120 121 119
3 122 121 120
3 122 123 121
3 124 123 122
3 125 124 126
3 124 125 123
3 106 105 126
3 127 126 105
3 126 127 125
3 79 16 82
3 16 79 19
3 82 47 75
3 47 82 16
3 57 89 90
3 89 57 55
3 18 84 48
3 84 18 81
3 28 114 113
3 114 28 29
3 49 86 51
3 86 49 85
3 51 87 52
3 87 51 86
3 53 87 88
3 87 53 52
3 55 88 89
3 88 55 53
3 48 85 49
3 85 48 84
3 22 110 109
3 110 22 24
3 20 83 17
3 83 20 107
3 17 81 18
3 81 17 83
3 22 108 21
3 108 22 109
3 27 113 112
3 113 27 28
3 26 112 111
3 112 26 27
3 24 111 110
3 111 24 26
3 21 107 20
3 107 21 108
3 29 115 114
3 115 29 31
3 61 96 94
3 96 61 63
3 69 100 67
3 100 69 102
3 65 100 98
3 100 65 67
3 63 98 96
3 98 63 65
3 45 104 46
3 104 45 105
3 46 102 69
3 102 46 104
3 59 94 92
3 94 59 61
3 56 92 73
3 92 56 59
3 106 70 103
3 70 106 71
3 60 91 93
3 91 60 58
3 64 95 97
3 95 64 62
3 66 97 99
3 97 66 64
3 101 66 99
3 66 101 68
3 103 68 101
3 68 103 70
3 62 93 95
3 93 62 60
3 58 90 91
3 90 58 57
3 40 125 42
3 125 40 123
3 36 117 119
3 117 36 34
3 36 121 38
3 121 36 119
3 38 123 40
3 123 38 121
3 34 80 117
3 80 34 32
3 42 127 44
3 127 42 125
3 44 105 45
3 105 44 127
3 124 43 126
3 43 124 41
3 120 39 122
3 39 120 37
3 118 37 120
3 37 118 35
3 33 118 116
3 118 33 35
3 31 116 115
3 116 31 33
3 122 41 124
3 41 122 39
3 126 71 106
3 71 126 43
3 128 129 130
3 129 128 131
3 132 133 134
3 133 132 135
3 136 137 138
3 137 136 139
3 140 141 142
3 141 140 143
3 144 145 146
3 145 144 147
3 148 149 150
3 149 148 151
3 138 152 153
3 152 138 137
3 153 128 130
3 128 153 152
3 131 154 129
3 154 131 155
3 156 157 158
3 157 156 159
3 160 161 162
3 161 160 163
3 146 164 165
3 164 146 145
3 143 166 141
3 166 143 167
3 159 142 157
3 142 159 140
3 167 164 166
3 164 167 165
3 168 139 136
3 139 168 169
3 170 171 172
3 171 170 173
3 173 174 171
3 174 173 175
3 175 176 174
3 176 175 177
3 178 179 180
3 179 178 181
3 135 172 133
3 172 135 170
3 182 134 183
3 134 182 132
3 184 183 185
3 183 184 182
3 186 163 160
3 163 186 187
3 188 169 189
3 169 188 139
3 190 189 191
3 189 190 188
3 191 192 190
3 179 192 191
3 179 193 192
3 181 193 179
3 181 194 193
3 177 194 181
3 177 195 194
3 175 195 177
3 175 196 195
3 173 196 175
3 173 197 196
3 170 197 173
3 170 198 197
3 170 199 198
3 135 199 170
3 135 200 199
3 132 200 135
3 132 201 200
3 182 201 132
3 182 202 201
3 184 202 182
3 184 203 202
3 148 203 184
3 148 204 203
3 150 204 148
3 204 150 205
3 186 205 150
3 205 186 206
3 207 139 188
3 139 207 137
3 208 137 207
3 208 152 137
3 209 152 208
3 209 128 152
3 210 128 209
3 210 131 128
3 211 131 210
3 211 155 131
3 212 155 211
3 212 156 155
3 213 156 212
3 214 156 213
3 214 159 156
3 215 159 214
3 215 140 159
3 216 140 215
3 216 143 140
3 217 143 216
3 217 167 143
3 218 167 217
3 218 165 167
3 219 165 218
3 219 146 165
3 220 146 219
3 144 220 221
3 220 144 146
3 162 221 206
3 160 206 186
3 221 162 144
3 206 160 162
3 155 158 154
3 158 155 156
3 222 168 136
3 168 222 223
3 224 136 138
3 136 224 222
3 138 225 224
3 153 225 138
3 153 226 225
3 130 226 153
3 130 227 226
3 129 227 130
3 129 228 227
3 154 228 129
3 154 229 228
3 158 229 154
3 158 230 229
3 157 230 158
3 157 231 230
3 157 232 231
3 142 232 157
3 142 233 232
3 141 233 142
3 141 234 233
3 166 234 141
3 166 235 234
3 164 235 166
3 164 236 235
3 145 236 164
3 145 237 236
3 147 237 145
3 237 147 238
3 161 238 147
3 238 161 239
3 240 223 222
3 223 240 241
3 242 241 240
3 242 180 241
3 243 180 242
3 243 178 180
3 244 178 243
3 244 176 178
3 245 176 244
3 245 174 176
3 246 174 245
3 246 171 174
3 247 171 246
3 248 171 247
3 248 172 171
3 249 172 248
3 249 133 172
3 250 133 249
3 250 134 133
3 251 134 250
3 251 183 134
3 252 183 251
3 252 185 183
3 253 185 252
3 253 151 185
3 254 151 253
3 149 254 255
3 254 149 151
3 187 255 239
3 163 239 161
3 255 187 149
3 239 163 187
3 162 147 144
3 147 162 161
3 223 169 168
3 169 223 189
3 241 189 223
3 189 241 191
3 177 178 176
3 178 177 181
3 180 191 241
3 191 180 179
3 150 187 186
3 187 150 149
3 184 151 148
3 151 184 185
3 208 226 209
3 226 208 225
3 239 221 238
3 221 239 206
3 209 227 210
3 227 209 226
3 213 229 230
3 229 213 212
3 217 233 234
3 233 217 216
3 238 220 237
3 220 238 221
3 190 222 188
3 222 190 240
3 196 247 246
3 247 196 197
3 211 227 228
3 227 211 210
3 215 231 232
3 231 215 214
3 212 228 229
3 228 212 211
3 237 219 236
3 219 237 220
3 218 234 235
3 234 218 217
3 216 232 233
3 232 216 215
3 236 218 235
3 218 236 219
3 188 224 207
3 224 188 222
3 192 240 190
3 240 192 242
3 194 245 244
3 245 194 195
3 207 225 208
3 225 207 224
3 214 230 231
3 230 214 213
3 193 242 192
3 242 193 243
3 255 206 239
3 206 255 205
3 253 204 254
3 204 253 203
3 195 246 245
3 246 195 196
3 198 249 248
3 249 198 199
3 197 248 247
3 248 197 198
3 254 205 255
3 205 254 204
3 194 243 193
3 243 194 244
3 200 251 250
3 251 200 201
3 199 250 249
3 250 199 200
3 252 203 253
3 203 252 202
3 201 252 251
3 252 201 202
3 256 257 258
3 257 256 259
3 257 260 261
3 260 257 259
3 260 262 261
3 262 260 263
3 262 257 261
3 257 262 258
3 256 262 263
3 262 256 258
3 256 260 259
3 260 256 263
3 264 265 266
3 265 264 267
3 265 268 266
3 268 265 269
3 270 265 267
3 265 270 269
3 270 268 269
3 268 270 271
3 270 264 271
3 264 270 267
3 268 264 266
3 264 268 271
3 272 273 274
3 273 272 275
3 276 272 277
3 272 276 275
3 278 272 274
3 272 278 277
3 273 278 274
3 278 273 279
3 276 278 279
3 278 276 277
3 276 273 275
3 273 276 279
3 280 281 282
3 281 280 283
3 284 280 282
3 280 284 285
3 286 281 283
3 281 286 287
3 286 280 285
3 280 286 283
3 286 284 287
3 284 286 285
3 281 284 282
3 284 281 287
3 288 289 290
3 289 288 291
3 289 292 293
3 292 289 291
3 292 294 293
3 294 292 295
3 294 289 293
3 289 294 290
3 288 294 295
3 294 288 290
3 288 292 291
3 292 288 295
3 296 297 298
3 297 296 299
3 297 300 301
3 300 297 299
3 300 302 301
3 302 300 303
3 302 297 301
3 297 302 298
3 296 302 303
3 302 296 298
3 296 300 299
3 300 296 303
3 304 305 306
3 305 304 307
3 305 308 309
3 308 305 307
3 308 310 309
3 310 308 311
3 310 305 309
3 305 310 306
3 304 310 311
3 310 304 306
3 304 308 307
3 308 304 311
3 312 313 314
3 313 312 315
3 313 316 317
3 316 313 315
3 316 318 317
3 318 316 319
3 312 318 319
3 318 312 314
3 312 316 315
3 316 312 319
3 318 313 317
3 313 318 314
3 320 321 322
3 321 320 323
3 321 324 325
3 324 321 323
3 324 326 325
3 326 324 327
3 326 321 325
3 321 326 322
3 320 326 327
3 326 320 322
3 320 324 323
3 324 320 327
3 328 329 330
3 329 328 331
3 329 332 333
3 332 329 331
3 332 334 333
3 334 332 335
3 334 329 333
3 329 334 330
3 328 334 335
3 334 328 330
3 328 332 331
3 332 328 335
3 336 337 338
3 337 336 339
3 340 341 342
3 340 343 341
3 340 344 343
3 344 340 337
3 345 342 341
3 345 339 342
3 344 339 345
3 339 344 337
3 342 346 340
3 346 342 347
3 336 348 347
3 336 349 348
3 336 350 349
3 350 336 338
3 351 347 348
3 351 346 347
3 350 346 351
3 346 350 338
3 339 347 342
3 347 339 336
3 338 340 346
3 340 338 337
3 345 350 344
3 350 345 349
3 348 343 351
3 343 348 341
3 344 351 343
3 351 344 350
3 349 341 348
3 341 349 345
