OFF 695 1390 0
0.980784 0.19509 0.04 
0.997045 0.0299997 0.0299997 
0.980784 0.19509 -0.04 
1 0 0.04 
1 0 0 
0.997045 0.0299997 -0.0299997 
1 0 -0.04 
-0.980784 0.19509 -0.04 
-0.997045 0.0299997 -0.0299997 
-0.980784 0.19509 0.04 
-1 0 -0.04 
-1 0 0 
-0.997045 0.0299997 0.0299997 
-1 0 0.04 
0.19509 0.980784 -0.04 
0 1 0.04 
0.19509 0.980784 0.04 
0 1 -0.04 
0.83147 0.55557 0.04 
0.707107 0.707107 -0.04 
0.707107 0.707107 0.04 
0.83147 0.55557 -0.04 
-0.55557 0.83147 -0.04 
-0.707107 0.707107 0.04 
-0.55557 0.83147 0.04 
-0.707107 0.707107 -0.04 
-0.19509 0.980784 -0.04 
-0.382683 0.923879 0.04 
-0.19509 0.980784 0.04 
-0.382683 0.923879 -0.04 
0.980784 -0.19509 -0.04 
0.99606 -0.0299997 -0.04 
0.882707 -0.175581 -0.04 
0.923879 -0.382683 -0.04 
0.916059 -0.0299997 -0.04 
0.9 0 -0.04 
0.916059 0.0299997 -0.04 
0.831491 -0.344415 -0.04 
0.83147 -0.55557 -0.04 
0.748322 -0.500012 -0.04 
0.707107 -0.707107 -0.04 
0.636395 -0.636395 -0.04 
0.55557 -0.83147 -0.04 
0.500012 -0.748322 -0.04 
0.382683 -0.923879 -0.04 
0.344415 -0.831491 -0.04 
0.19509 -0.980784 -0.04 
0.175581 -0.882707 -0.04 
0 -1 -0.04 
0 -0.9 -0.04 
-0.175581 -0.882707 -0.04 
-0.19509 -0.980784 -0.04 
-0.344415 -0.831491 -0.04 
-0.382683 -0.923879 -0.04 
-0.500012 -0.748322 -0.04 
-0.55557 -0.83147 -0.04 
-0.636395 -0.636395 -0.04 
-0.707107 -0.707107 -0.04 
-0.748322 -0.500012 -0.04 
-0.83147 -0.55557 -0.04 
-0.831491 -0.344415 -0.04 
-0.923879 -0.382683 -0.04 
-0.882707 -0.175581 -0.04 
-0.916059 -0.0299997 -0.04 
-0.9 0 -0.04 
-0.980784 -0.19509 -0.04 
-0.99606 -0.0299997 -0.04 
-0.99606 0.0299997 -0.04 
0.99606 0.0299997 -0.04 
0.882707 0.175581 -0.04 
0.923879 0.382683 -0.04 
0.831491 0.344415 -0.04 
0.748322 0.500012 -0.04 
0.636395 0.636395 -0.04 
0.55557 0.83147 -0.04 
0.500012 0.748322 -0.04 
0.382683 0.923879 -0.04 
0.344415 0.831491 -0.04 
0.175581 0.882707 -0.04 
0 0.9 -0.04 
-0.175581 0.882707 -0.04 
-0.344415 0.831491 -0.04 
-0.500012 0.748322 -0.04 
-0.636395 0.636395 -0.04 
-0.748322 0.500012 -0.04 
-0.83147 0.55557 -0.04 
-0.831491 0.344415 -0.04 
-0.923879 0.382683 -0.04 
-0.882707 0.175581 -0.04 
-0.916059 0.0299997 -0.04 
0.923879 0.382683 0.04 
0.382683 0.923879 0.04 
0.55557 0.83147 0.04 
-0.83147 0.55557 0.04 
-0.923879 0.382683 0.04 
0.997045 -0.0299997 0.0299997 
0.980784 -0.19509 0.04 
0.997045 -0.0299997 -0.0299997 
0.19509 -0.980784 0.04 
0 -1 0.04 
0.55557 -0.83147 0.04 
0.382683 -0.923879 0.04 
-0.55557 -0.83147 0.04 
-0.707107 -0.707107 0.04 
-0.19509 -0.980784 0.04 
-0.382683 -0.923879 0.04 
-0.923879 -0.382683 0.04 
-0.83147 -0.55557 0.04 
-0.997045 -0.0299997 -0.0299997 
-0.997045 -0.0299997 0.0299997 
-0.980784 -0.19509 0.04 
0.707107 -0.707107 0.04 
0.83147 -0.55557 0.04 
0.99606 0.0299997 0.04 
0.882707 0.175581 0.04 
0.916059 0.0299997 0.04 
0.9 0 0.04 
0.916059 -0.0299997 0.04 
0.831491 0.344415 0.04 
0.748322 0.500012 0.04 
0.636395 0.636395 0.04 
0.500012 0.748322 0.04 
0.344415 0.831491 0.04 
0.175581 0.882707 0.04 
0 0.9 0.04 
-0.175581 0.882707 0.04 
-0.344415 0.831491 0.04 
-0.500012 0.748322 0.04 
-0.636395 0.636395 0.04 
-0.748322 0.500012 0.04 
-0.831491 0.344415 0.04 
-0.882707 0.175581 0.04 
-0.916059 0.0299997 0.04 
-0.9 0 0.04 
-0.99606 0.0299997 0.04 
-0.99606 -0.0299997 0.04 
0.99606 -0.0299997 0.04 
0.882707 -0.175581 0.04 
0.923879 -0.382683 0.04 
0.831491 -0.344415 0.04 
0.748322 -0.500012 0.04 
0.636395 -0.636395 0.04 
0.500012 -0.748322 0.04 
0.344415 -0.831491 0.04 
0.175581 -0.882707 0.04 
0 -0.9 0.04 
-0.175581 -0.882707 0.04 
-0.344415 -0.831491 0.04 
-0.500012 -0.748322 0.04 
-0.636395 -0.636395 0.04 
-0.748322 -0.500012 0.04 
-0.831491 -0.344415 0.04 
-0.882707 -0.175581 0.04 
-0.916059 -0.0299997 0.04 
-0.896813 0.0323547 0.0155287 
-0.897063 0.0298154 0.0184315 
-0.897309 0.0273141 0.0212905 
-0.899131 0.00882426 0.0267178 
-0.9 0 0.0293077 
-0.896813 0.0323547 -0.0155287 
-0.897063 0.0298154 -0.0184315 
-0.897309 0.0273141 -0.0212905 
-0.899131 0.00882426 -0.0267178 
-0.9 0 -0.0293077 
0.899131 -0.00882426 -0.0267178 
0.9 0 -0.0293077 
0.897309 -0.0273141 -0.0212905 
0.896813 -0.0323547 -0.0155287 
0.896813 -0.0323547 0.0155287 
0.897063 -0.0298154 -0.0184315 
0.899131 -0.00882426 0.0267178 
0.9 0 0.0293077 
0.897309 -0.0273141 0.0212905 
0.897063 -0.0298154 0.0184315 
0.896813 0.0323547 -0.0155287 
0.897063 0.0298154 -0.0184315 
0.897309 0.0273141 -0.0212905 
0.899131 0.00882426 -0.0267178 
0.896813 0.0323547 0.0155287 
0.897063 0.0298154 0.0184315 
0.897309 0.0273141 0.0212905 
0.899131 0.00882426 0.0267178 
-0.00882426 -0.899131 0.0267178 
0 -0.9 0.0293077 
-0.0273141 -0.897309 0.0212905 
-0.0298154 -0.897063 0.0184315 
-0.0323547 -0.896813 0.0155287 
-0.0323547 -0.896813 -0.0155287 
-0.0298154 -0.897063 -0.0184315 
-0.0273141 -0.897309 -0.0212905 
-0.00882426 -0.899131 -0.0267178 
0 -0.9 -0.0293077 
-0.899131 -0.00882426 0.0267178 
-0.897309 -0.0273141 0.0212905 
-0.896813 -0.0323547 0.0155287 
-0.896813 -0.0323547 -0.0155287 
-0.897063 -0.0298154 0.0184315 
-0.899131 -0.00882426 -0.0267178 
-0.897309 -0.0273141 -0.0212905 
-0.897063 -0.0298154 -0.0184315 
0.0273141 -0.897309 0.0212905 
0.00882426 -0.899131 0.0267178 
0.0298154 -0.897063 0.0184315 
0.0323547 -0.896813 0.0155287 
0.0323547 -0.896813 -0.0155287 
0.0298154 -0.897063 -0.0184315 
0.0273141 -0.897309 -0.0212905 
0.00882426 -0.899131 -0.0267178 
0.980784 -0.0299997 0.19509 
0.980784 0.0299997 0.19509 
1 0.0299997 0 
1 -0.0299997 0 
0.923879 -0.0299997 0.382683 
0.923879 0.0299997 0.382683 
-0.980784 0.0299997 0.19509 
-0.980784 -0.0299997 0.19509 
-1 0.0299997 0 
-1 -0.0299997 0 
0 0.0299997 1 
0.19509 -0.0299997 0.980784 
0.19509 0.0299997 0.980784 
0 -0.0299997 1 
0.707107 -0.0299997 0.707107 
0.83147 0.0299997 0.55557 
0.707107 0.0299997 0.707107 
0.83147 -0.0299997 0.55557 
-0.707107 0.0299997 0.707107 
-0.55557 -0.0299997 0.83147 
-0.55557 0.0299997 0.83147 
-0.707107 -0.0299997 0.707107 
-0.382683 0.0299997 0.923879 
-0.19509 -0.0299997 0.980784 
-0.19509 0.0299997 0.980784 
-0.382683 -0.0299997 0.923879 
0 -0.0299997 -1 
0.19509 0.0299997 -0.980784 
0.19509 -0.0299997 -0.980784 
0 0.0299997 -1 
0.83147 -0.0299997 -0.55557 
0.707107 0.0299997 -0.707107 
0.83147 0.0299997 -0.55557 
0.707107 -0.0299997 -0.707107 
0 0.0299997 0.919999 
0.179482 0.0299997 0.902322 
0.382683 0.0299997 0.923879 
-0.179482 0.0299997 0.902322 
0.352068 0.0299997 0.849969 
0.55557 0.0299997 0.83147 
0.511125 0.0299997 0.764952 
0.650537 0.0299997 0.650537 
0.764952 0.0299997 0.511125 
0.849969 0.0299997 0.352068 
0.902322 0.0299997 0.179482 
-0.352068 0.0299997 0.849969 
-0.511125 0.0299997 0.764952 
-0.650537 0.0299997 0.650537 
-0.83147 0.0299997 0.55557 
-0.764952 0.0299997 0.511125 
-0.923879 0.0299997 0.382683 
-0.849969 0.0299997 0.352068 
-0.902322 0.0299997 0.179482 
0.902322 0.0299997 -0.179482 
0.980784 0.0299997 -0.19509 
0.849969 0.0299997 -0.352068 
0.923879 0.0299997 -0.382683 
0.764952 0.0299997 -0.511125 
0.650537 0.0299997 -0.650537 
0.511125 0.0299997 -0.764952 
0.55557 0.0299997 -0.83147 
0.352068 0.0299997 -0.849969 
0.382683 0.0299997 -0.923879 
0.179482 0.0299997 -0.902322 
-0.902322 0.0299997 -0.179482 
-0.980784 0.0299997 -0.19509 
-0.849969 0.0299997 -0.352068 
-0.923879 0.0299997 -0.382683 
-0.764952 0.0299997 -0.511125 
-0.83147 0.0299997 -0.55557 
-0.650537 0.0299997 -0.650537 
-0.707107 0.0299997 -0.707107 
-0.511125 0.0299997 -0.764952 
-0.55557 0.0299997 -0.83147 
-0.352068 0.0299997 -0.849969 
-0.382683 0.0299997 -0.923879 
-0.179482 0.0299997 -0.902322 
-0.19509 0.0299997 -0.980784 
0 0.0299997 -0.919999 
0.55557 -0.0299997 0.83147 
0.382683 -0.0299997 0.923879 
-0.923879 -0.0299997 0.382683 
-0.83147 -0.0299997 0.55557 
0 -0.0299997 0.919999 
-0.179482 -0.0299997 0.902322 
0.179482 -0.0299997 0.902322 
-0.352068 -0.0299997 0.849969 
-0.511125 -0.0299997 0.764952 
-0.650537 -0.0299997 0.650537 
-0.764952 -0.0299997 0.511125 
-0.849969 -0.0299997 0.352068 
-0.902322 -0.0299997 0.179482 
0.352068 -0.0299997 0.849969 
0.511125 -0.0299997 0.764952 
0.650537 -0.0299997 0.650537 
0.764952 -0.0299997 0.511125 
0.849969 -0.0299997 0.352068 
0.902322 -0.0299997 0.179482 
-0.902322 -0.0299997 -0.179482 
-0.980784 -0.0299997 -0.19509 
-0.849969 -0.0299997 -0.352068 
-0.923879 -0.0299997 -0.382683 
-0.764952 -0.0299997 -0.511125 
-0.83147 -0.0299997 -0.55557 
-0.650537 -0.0299997 -0.650537 
-0.707107 -0.0299997 -0.707107 
-0.511125 -0.0299997 -0.764952 
-0.55557 -0.0299997 -0.83147 
-0.352068 -0.0299997 -0.849969 
-0.382683 -0.0299997 -0.923879 
-0.19509 -0.0299997 -0.980784 
-0.179482 -0.0299997 -0.902322 
0.902322 -0.0299997 -0.179482 
0.980784 -0.0299997 -0.19509 
0.849969 -0.0299997 -0.352068 
0.923879 -0.0299997 -0.382683 
0.764952 -0.0299997 -0.511125 
0.650537 -0.0299997 -0.650537 
0.511125 -0.0299997 -0.764952 
0.55557 -0.0299997 -0.83147 
0.352068 -0.0299997 -0.849969 
0.382683 -0.0299997 -0.923879 
0.179482 -0.0299997 -0.902322 
0 -0.0299997 -0.919999 
-0.886742 -0.0212126 0.0424261 
-0.878977 -0.0501909 -0.0155287 
-0.878977 -0.0501909 0.0155287 
-0.792044 0 0.0155287 
-0.813257 0.0212126 0.0424261 
-0.807573 0 0.0424261 
-0.849999 0.0579548 0.0155287 
-0.849999 0.0424261 0.0424261 
-0.821022 0.0501909 0.0155287 
-0.878977 0.0501909 0.0155287 
-0.836551 0.00776386 0.0579548 
-0.836551 -0.00776386 0.0579548 
-0.834471 0 0.0579548 
-0.842235 0.0134478 0.0579548 
-0.842235 -0.0134478 0.0579548 
-0.849999 0.0155287 0.0579548 
-0.849999 -0.0155287 0.0579548 
-0.857764 0.0134478 0.0579548 
-0.857764 -0.0134478 0.0579548 
-0.863448 0.00776386 0.0579548 
-0.863448 -0.00776386 0.0579548 
-0.865529 0 0.0579548 
-0.871213 0.0367422 0.0424261 
-0.886742 0.0212126 0.0424261 
-0.813257 -0.0212126 0.0424261 
-0.828786 -0.0367422 0.0424261 
-0.799809 -0.0289774 0.0155287 
-0.871213 0.0367422 -0.0424261 
-0.886742 0.0212126 -0.0424261 
-0.807573 0 -0.0424261 
-0.836551 -0.00776386 -0.0579548 
-0.834471 0 -0.0579548 
-0.799809 -0.0289774 -0.0155287 
-0.828786 -0.0367422 -0.0424261 
-0.813257 -0.0212126 -0.0424261 
-0.799809 0.0289774 -0.0155287 
-0.828786 0.0367422 -0.0424261 
-0.821022 0.0501909 -0.0155287 
-0.792044 0 -0.0155287 
-0.813257 0.0212126 -0.0424261 
-0.863448 -0.00776386 -0.0579548 
-0.886742 -0.0212126 -0.0424261 
-0.865529 0 -0.0579548 
-0.892426 0 0.0424261 
-0.821022 -0.0501909 0.0155287 
-0.849999 -0.0579548 -0.0155287 
-0.849999 -0.0579548 0.0155287 
-0.821022 -0.0501909 -0.0155287 
-0.849999 0.0579548 -0.0155287 
-0.836551 0.00776386 -0.0579548 
-0.878977 0.0501909 -0.0155287 
-0.849999 0.0424261 -0.0424261 
-0.799809 0.0289774 0.0155287 
-0.828786 0.0367422 0.0424261 
-0.849999 -0.0424261 -0.0424261 
-0.871213 -0.0367422 -0.0424261 
-0.849999 0.0155287 -0.0579548 
-0.849999 -0.0424261 0.0424261 
-0.892426 0 -0.0424261 
-0.857764 0.0134478 -0.0579548 
-0.849999 -0.0155287 -0.0579548 
-0.842235 -0.0134478 -0.0579548 
-0.871213 -0.0367422 0.0424261 
-0.842235 0.0134478 -0.0579548 
-0.863448 0.00776386 -0.0579548 
-0.857764 -0.0134478 -0.0579548 
-0.00776386 -0.863448 0.0579548 
-0.0367422 -0.871213 0.0424261 
-0.0212126 -0.886742 0.0424261 
-0.0289774 -0.799809 0.0155287 
-0.0367422 -0.828786 0.0424261 
-0.0212126 -0.813257 0.0424261 
-0.0501909 -0.821022 0.0155287 
-0.0579548 -0.849999 0.0155287 
-0.0424261 -0.849999 0.0424261 
0.0212126 -0.886742 0.0424261 
-0.0501909 -0.878977 0.0155287 
-0.0501909 -0.878977 -0.0155287 
-0.0579548 -0.849999 -0.0155287 
-0.0424261 -0.849999 -0.0424261 
0.0289774 -0.799809 -0.0155287 
0 -0.792044 0.0155287 
0.0289774 -0.799809 0.0155287 
0 -0.792044 -0.0155287 
0 -0.892426 -0.0424261 
-0.0212126 -0.886742 -0.0424261 
-0.0134478 -0.857764 0.0579548 
-0.0155287 -0.849999 0.0579548 
0.0212126 -0.886742 -0.0424261 
0.00776386 -0.863448 -0.0579548 
0.0367422 -0.871213 -0.0424261 
-0.0501909 -0.821022 -0.0155287 
-0.0367422 -0.828786 -0.0424261 
0.0367422 -0.871213 0.0424261 
-0.0367422 -0.871213 -0.0424261 
0.0367422 -0.828786 0.0424261 
0.0134478 -0.842235 0.0579548 
0.0155287 -0.849999 0.0579548 
0 -0.865529 -0.0579548 
0.0212126 -0.813257 0.0424261 
-0.0155287 -0.849999 -0.0579548 
0 -0.807573 0.0424261 
0.0501909 -0.821022 0.0155287 
0.0501909 -0.821022 -0.0155287 
0 -0.892426 0.0424261 
0.0134478 -0.857764 0.0579548 
0.00776386 -0.836551 0.0579548 
0.00776386 -0.863448 0.0579548 
0 -0.834471 0.0579548 
0 -0.865529 0.0579548 
-0.00776386 -0.836551 0.0579548 
-0.0134478 -0.842235 0.0579548 
-0.0289774 -0.799809 -0.0155287 
0.00776386 -0.836551 -0.0579548 
0 -0.807573 -0.0424261 
0.0212126 -0.813257 -0.0424261 
-0.0212126 -0.813257 -0.0424261 
0.0501909 -0.878977 0.0155287 
0.0501909 -0.878977 -0.0155287 
0.0367422 -0.828786 -0.0424261 
0.0424261 -0.849999 -0.0424261 
0.0155287 -0.849999 -0.0579548 
0.0134478 -0.842235 -0.0579548 
0.0579548 -0.849999 -0.0155287 
-0.00776386 -0.863448 -0.0579548 
-0.00776386 -0.836551 -0.0579548 
0.0424261 -0.849999 0.0424261 
0.0579548 -0.849999 0.0155287 
-0.0134478 -0.857764 -0.0579548 
0 -0.834471 -0.0579548 
-0.0134478 -0.842235 -0.0579548 
0.0134478 -0.857764 -0.0579548 
0.886742 0.0212126 0.0424261 
0.878977 0.0501909 -0.0155287 
0.878977 0.0501909 0.0155287 
0.807573 0 0.0424261 
0.792044 0 0.0155287 
0.813257 -0.0212126 0.0424261 
0.849999 -0.0424261 0.0424261 
0.821022 -0.0501909 0.0155287 
0.849999 -0.0579548 0.0155287 
0.799809 0.0289774 -0.0155287 
0.821022 0.0501909 0.0155287 
0.821022 0.0501909 -0.0155287 
0.799809 0.0289774 0.0155287 
0.878977 -0.0501909 0.0155287 
0.886742 -0.0212126 0.0424261 
0.863448 -0.00776386 0.0579548 
0.871213 -0.0367422 0.0424261 
0.828786 0.0367422 0.0424261 
0.813257 0.0212126 0.0424261 
0.871213 -0.0367422 -0.0424261 
0.886742 -0.0212126 -0.0424261 
0.857764 -0.0134478 0.0579548 
0.849999 -0.0155287 0.0579548 
0.842235 0.0134478 0.0579548 
0.836551 0.00776386 0.0579548 
0.834471 0 -0.0579548 
0.807573 0 -0.0424261 
0.836551 0.00776386 -0.0579548 
0.813257 0.0212126 -0.0424261 
0.828786 0.0367422 -0.0424261 
0.821022 -0.0501909 -0.0155287 
0.799809 -0.0289774 -0.0155287 
0.828786 -0.0367422 -0.0424261 
0.792044 0 -0.0155287 
0.813257 -0.0212126 -0.0424261 
0.865529 0 -0.0579548 
0.863448 0.00776386 -0.0579548 
0.886742 0.0212126 -0.0424261 
0.865529 0 0.0579548 
0.892426 0 0.0424261 
0.849999 -0.0579548 -0.0155287 
0.878977 -0.0501909 -0.0155287 
0.836551 -0.00776386 -0.0579548 
0.849999 -0.0424261 -0.0424261 
0.799809 -0.0289774 0.0155287 
0.828786 -0.0367422 0.0424261 
0.849999 0.0424261 -0.0424261 
0.849999 0.0579548 -0.0155287 
0.849999 0.0579548 0.0155287 
0.871213 0.0367422 -0.0424261 
0.849999 -0.0155287 -0.0579548 
0.849999 0.0424261 0.0424261 
0.892426 0 -0.0424261 
0.836551 -0.00776386 0.0579548 
0.857764 -0.0134478 -0.0579548 
0.842235 0.0134478 -0.0579548 
0.849999 0.0155287 -0.0579548 
0.871213 0.0367422 0.0424261 
0.863448 -0.00776386 -0.0579548 
0.857764 0.0134478 -0.0579548 
0.842235 -0.0134478 -0.0579548 
0.849999 0.0155287 0.0579548 
0.857764 0.0134478 0.0579548 
0.834471 0 0.0579548 
0.863448 0.00776386 0.0579548 
0.842235 -0.0134478 0.0579548 
0 0.87 -0.174999 
0 0.75 0.174999 
0.12 0.75 -0.174999 
0 0.629999 -0.174999 
-0.12 0.75 -0.174999 
-0.7 -0.0199995 -0.0199995 
-0.7 0.0199995 0.0199995 
-0.7 0.0199995 -0.0199995 
-0.7 -0.0199995 0.0199995 
0.7 0.0199995 0.0199995 
0.076643 0 0.0199995 
0.7 -0.0199995 0.0199995 
0.0758718 0.00387723 0.0199995 
0.0726647 0.0199995 0.0199995 
0.0758718 -0.00387723 0.0199995 
0.0726647 -0.0199995 0.0199995 
-0.0758718 0.00387723 0.0199995 
-0.076643 0 0.0199995 
-0.0726647 0.0199995 0.0199995 
-0.0758718 -0.00387723 0.0199995 
-0.0726647 -0.0199995 0.0199995 
0.7 0.0199995 -0.0199995 
0.7 -0.0199995 -0.0199995 
0.0744842 0.0199995 0.0156069 
0.0744842 0.0199995 -0.0156069 
0.0726647 0.0199995 -0.0199995 
-0.0744842 0.0199995 0.0156069 
-0.0744842 0.0199995 -0.0156069 
-0.0726647 0.0199995 -0.0199995 
-0.0758718 -0.00387723 -0.0199995 
-0.076643 0 -0.0199995 
-0.0726647 -0.0199995 -0.0199995 
-0.0758718 0.00387723 -0.0199995 
0.076643 0 -0.0199995 
0.0758718 -0.00387723 -0.0199995 
0.0726647 -0.0199995 -0.0199995 
0.0758718 0.00387723 -0.0199995 
0.0744842 -0.0199995 0.0156069 
0.0744842 -0.0199995 -0.0156069 
-0.0744842 -0.0199995 0.0156069 
-0.0744842 -0.0199995 -0.0156069 
-0.0614538 -0.0254545 0.044445 
-0.0724897 -0.0300255 0.0156069 
-0.055481 -0.055481 0.0156069 
-0.0724897 0.0300255 0.0156069 
-0.0614538 0.0254545 0.044445 
0.0470343 -0.0470343 0.044445 
0.0254545 -0.0614538 0.044445 
0.055481 -0.055481 0.0156069 
0.0614538 0.0254545 -0.044445 
0.055481 0.055481 -0.0156069 
0.0724897 0.0300255 -0.0156069 
-0.0665169 0 -0.044445 
-0.0614538 0.0254545 -0.044445 
0.0614538 0.0254545 0.044445 
0.0724897 0.0300255 0.0156069 
0.055481 0.055481 0.0156069 
0.0254545 0.0614538 0.044445 
0.0470343 0.0470343 0.044445 
0.0314274 0.0314274 0.0665169 
0.0410624 0.0170078 0.0665169 
0.0300255 -0.0724897 -0.0156069 
0.0254545 -0.0614538 -0.044445 
0.055481 -0.055481 -0.0156069 
0.0254545 0.0614538 -0.044445 
0.0300255 0.0724897 -0.0156069 
0.0110359 0.0110359 0.0784626 
0.0144186 0.00597191 0.0784626 
0.0156069 0 0.0784626 
-0.0470343 -0.0470343 0.044445 
-0.0665169 0 0.044445 
-0.0614538 -0.0254545 -0.044445 
-0.0410624 -0.0170078 -0.0665169 
0 -0.0784626 -0.0156069 
-0.0254545 -0.0614538 -0.044445 
0 -0.0665169 -0.044445 
0.0470343 -0.0470343 -0.044445 
0.0314274 -0.0314274 -0.0665169 
0.0614538 -0.0254545 -0.044445 
0.044445 0 -0.0665169 
0.0156069 0 -0.0784626 
0.0410624 0.0170078 -0.0665169 
0.044445 0 0.0665169 
0.0410624 -0.0170078 0.0665169 
0.0665169 0 0.044445 
-0.0144186 -0.00597191 0.0784626 
-0.0410624 -0.0170078 0.0665169 
-0.0110359 -0.0110359 0.0784626 
-0.0410624 0.0170078 0.0665169 
-0.0724897 -0.0300255 -0.0156069 
0 0.0784626 0.0156069 
0.0300255 0.0724897 0.0156069 
0 0.0784626 -0.0156069 
-0.0724897 0.0300255 -0.0156069 
-0.0300255 0.0724897 0.0156069 
-0.0300255 0.0724897 -0.0156069 
-0.0156069 0 -0.0784626 
-0.0410624 0.0170078 -0.0665169 
-0.0144186 0.00597191 -0.0784626 
0.0614538 -0.0254545 0.044445 
0.0724897 -0.0300255 0.0156069 
0.0665169 0 -0.044445 
0.0170078 0.0410624 0.0665169 
0.0314274 0.0314274 -0.0665169 
0.0170078 0.0410624 -0.0665169 
0.0314274 -0.0314274 0.0665169 
0.0170078 -0.0410624 0.0665169 
-0.0254545 -0.0614538 0.044445 
-0.0300255 -0.0724897 0.0156069 
0.0300255 -0.0724897 0.0156069 
0.0170078 -0.0410624 -0.0665169 
0.0110359 -0.0110359 -0.0784626 
-0.0170078 -0.0410624 -0.0665169 
-0.055481 -0.055481 -0.0156069 
-0.0170078 0.0410624 -0.0665169 
-0.0254545 0.0614538 -0.044445 
0 0.0665169 -0.044445 
0.00597191 0.0144186 0.0784626 
-0.055481 0.055481 -0.0156069 
0.0410624 -0.0170078 -0.0665169 
0 0.044445 -0.0665169 
0.0724897 -0.0300255 -0.0156069 
-0.0314274 0.0314274 0.0665169 
0 0.0665169 0.044445 
-0.055481 0.055481 0.0156069 
-0.0470343 0.0470343 0.044445 
0.0110359 -0.0110359 0.0784626 
-0.0300255 -0.0724897 -0.0156069 
-0.0314274 -0.0314274 0.0665169 
-0.0470343 -0.0470343 -0.044445 
-0.0170078 -0.0410624 0.0665169 
0 -0.0665169 0.044445 
-0.044445 0 -0.0665169 
0 -0.044445 -0.0665169 
-0.0314274 0.0314274 -0.0665169 
-0.0470343 0.0470343 -0.044445 
0.0470343 0.0470343 -0.044445 
0.0110359 0.0110359 -0.0784626 
-0.00597191 0.0144186 -0.0784626 
0 0.0156069 -0.0784626 
-0.0170078 0.0410624 0.0665169 
0 0.044445 0.0665169 
-0.0254545 0.0614538 0.044445 
-0.00597191 -0.0144186 0.0784626 
0 -0.0156069 0.0784626 
0.0144186 -0.00597191 0.0784626 
0 -0.0784626 0.0156069 
0 -0.0156069 -0.0784626 
0.00597191 -0.0144186 -0.0784626 
-0.0314274 -0.0314274 -0.0665169 
-0.0110359 -0.0110359 -0.0784626 
0.00597191 0.0144186 -0.0784626 
0 0.0156069 0.0784626 
-0.00597191 0.0144186 0.0784626 
-0.0110359 0.0110359 0.0784626 
-0.0144186 0.00597191 0.0784626 
-0.044445 0 0.0665169 
0 -0.044445 0.0665169 
0.0144186 0.00597191 -0.0784626 
-0.0144186 -0.00597191 -0.0784626 
-0.0156069 0 0.0784626 
0.00597191 -0.0144186 0.0784626 
-0.0110359 0.0110359 -0.0784626 
0.0144186 -0.00597191 -0.0784626 
-0.00597191 -0.0144186 -0.0784626 
3 0 1 2
3 3 1 0
3 1 3 4
3 5 2 1
3 5 6 2
3 6 5 4
3 7 8 9
3 10 8 7
3 8 10 11
3 12 9 8
3 12 13 9
3 13 12 11
3 14 15 16
3 15 14 17
3 18 19 20
3 19 18 21
3 22 23 24
3 23 22 25
3 26 27 28
3 27 26 29
3 30 31 6
3 32 30 33
3 34 30 32
3 34 35 36
3 30 34 31
3 34 32 35
3 33 37 32
3 38 37 33
3 38 39 37
3 40 39 38
3 40 41 39
3 42 41 40
3 42 43 41
3 44 43 42
3 44 45 43
3 46 45 44
3 46 47 45
3 48 47 46
3 48 49 47
3 48 50 49
3 51 50 48
3 51 52 50
3 53 52 51
3 53 54 52
3 55 54 53
3 55 56 54
3 57 56 55
3 57 58 56
3 59 58 57
3 59 60 58
3 61 60 59
3 62 63 64
3 60 61 62
3 65 62 61
3 62 65 63
3 65 66 63
3 66 10 67
3 10 66 65
3 68 6 31
3 68 2 6
3 36 2 68
3 2 36 69
3 69 36 35
3 2 69 70
3 71 70 69
3 71 21 70
3 72 21 71
3 72 19 21
3 73 19 72
3 73 74 19
3 75 74 73
3 75 76 74
3 77 76 75
3 77 14 76
3 78 14 77
3 79 14 78
3 79 17 14
3 80 17 79
3 80 26 17
3 81 26 80
3 81 29 26
3 82 29 81
3 82 22 29
3 83 22 82
3 83 25 22
3 84 25 83
3 84 85 25
3 86 85 84
3 87 86 88
3 89 64 63
3 64 89 88
3 7 88 89
3 86 87 85
3 88 7 87
3 67 7 89
3 7 67 10
3 90 21 18
3 21 90 70
3 0 70 90
3 70 0 2
3 74 91 92
3 91 74 76
3 76 16 91
3 16 76 14
3 19 92 20
3 92 19 74
3 87 93 85
3 93 87 94
3 85 23 25
3 23 85 93
3 7 94 87
3 94 7 9
3 29 24 27
3 24 29 22
3 17 28 15
3 28 17 26
3 3 95 4
3 95 96 97
3 96 95 3
3 97 6 4
3 97 30 6
3 30 97 96
3 48 98 99
3 98 48 46
3 44 100 101
3 100 44 42
3 57 102 103
3 102 57 55
3 53 104 105
3 104 53 51
3 59 106 61
3 106 59 107
3 10 108 11
3 108 65 109
3 65 108 10
3 109 13 11
3 109 110 13
3 110 109 65
3 46 101 98
3 101 46 44
3 42 111 100
3 111 42 40
3 111 38 112
3 38 111 40
3 55 105 102
3 105 55 53
3 51 99 104
3 99 51 48
3 57 107 59
3 107 57 103
3 61 110 65
3 110 61 106
3 0 113 3
3 114 0 90
3 115 0 114
3 115 116 117
3 0 115 113
3 115 114 116
3 90 118 114
3 18 118 90
3 18 119 118
3 20 119 18
3 20 120 119
3 92 120 20
3 92 121 120
3 91 121 92
3 91 122 121
3 16 122 91
3 16 123 122
3 15 123 16
3 15 124 123
3 15 125 124
3 28 125 15
3 28 126 125
3 27 126 28
3 27 127 126
3 24 127 27
3 24 128 127
3 23 128 24
3 23 129 128
3 93 129 23
3 93 130 129
3 94 130 93
3 131 132 133
3 130 94 131
3 9 131 94
3 131 9 132
3 9 134 132
3 134 13 135
3 13 134 9
3 136 3 113
3 136 96 3
3 117 96 136
3 96 117 137
3 137 117 116
3 96 137 138
3 139 138 137
3 139 112 138
3 140 112 139
3 140 111 112
3 141 111 140
3 141 100 111
3 142 100 141
3 142 101 100
3 143 101 142
3 143 98 101
3 144 98 143
3 145 98 144
3 145 99 98
3 146 99 145
3 146 104 99
3 147 104 146
3 147 105 104
3 148 105 147
3 148 102 105
3 149 102 148
3 149 103 102
3 150 103 149
3 150 107 103
3 151 107 150
3 106 151 152
3 153 133 132
3 133 153 152
3 110 152 153
3 151 106 107
3 152 110 106
3 135 110 153
3 110 135 13
3 112 33 138
3 33 112 38
3 138 30 96
3 30 138 33
3 71 119 72
3 119 71 118
3 131 154 88
3 131 155 154
3 131 156 155
3 133 156 131
3 156 133 157
3 157 133 158
3 159 88 154
3 160 88 159
3 161 88 160
3 64 161 162
3 64 162 163
3 161 64 88
3 72 120 73
3 120 72 119
3 78 122 123
3 122 78 77
3 82 126 127
3 126 82 81
3 131 86 130
3 86 131 88
3 35 164 165
3 35 166 164
3 167 32 168
3 169 32 167
3 166 32 169
3 32 166 35
3 170 116 171
3 172 116 170
3 137 168 32
3 168 137 173
3 173 137 172
3 172 137 116
3 45 144 143
3 144 45 47
3 69 118 71
3 118 69 114
3 75 120 121
3 120 75 73
3 80 124 125
3 124 80 79
3 77 121 122
3 121 77 75
3 130 84 129
3 84 130 86
3 83 127 128
3 127 83 82
3 81 125 126
3 125 81 80
3 129 83 128
3 83 129 84
3 69 174 114
3 69 175 174
3 69 176 175
3 35 176 69
3 176 35 177
3 177 35 165
3 178 114 174
3 179 114 178
3 180 114 179
3 116 180 181
3 116 181 171
3 180 116 114
3 41 142 141
3 142 41 43
3 37 137 32
3 137 37 139
3 182 145 183
3 184 145 182
3 145 184 146
3 185 146 184
3 186 146 185
3 187 146 186
3 50 187 188
3 50 188 189
3 49 190 191
3 49 189 190
3 50 189 49
3 187 50 146
3 79 123 124
3 123 79 78
3 39 139 37
3 139 39 140
3 133 192 158
3 133 193 192
3 194 152 195
3 196 152 194
3 193 152 196
3 152 193 133
3 197 64 163
3 198 64 197
3 62 195 152
3 195 62 199
3 199 62 198
3 198 62 64
3 41 140 39
3 140 41 141
3 200 145 144
3 145 201 183
3 145 200 201
3 144 202 200
3 144 203 202
3 144 204 203
3 47 204 144
3 204 47 205
3 205 47 206
3 49 206 47
3 206 49 207
3 207 49 191
3 52 148 147
3 148 52 54
3 151 62 152
3 62 151 60
3 149 58 150
3 58 149 56
3 150 60 151
3 60 150 58
3 43 143 142
3 143 43 45
3 50 147 146
3 147 50 52
3 54 149 148
3 149 54 56
3 208 113 209
3 113 208 136
3 210 1 4
3 4 95 211
3 212 209 213
3 209 212 208
3 135 214 134
3 214 135 215
3 216 11 12
3 11 217 109
3 218 219 220
3 219 218 221
3 222 223 224
3 223 222 225
3 226 227 228
3 227 226 229
3 230 231 232
3 231 230 233
3 234 235 236
3 235 234 237
3 238 239 240
3 239 238 241
3 242 218 220
3 243 220 244
3 218 242 232
3 245 232 242
3 220 243 242
3 244 246 243
3 247 246 244
3 247 248 246
3 224 248 247
3 224 249 248
3 223 249 224
3 223 250 249
3 213 250 223
3 213 251 250
3 209 251 213
3 209 252 251
3 113 252 209
3 252 113 115
3 232 245 230
3 253 230 245
3 253 228 230
3 254 228 253
3 254 226 228
3 255 226 254
3 255 256 226
3 257 256 255
3 257 258 256
3 259 258 257
3 259 214 258
3 260 214 259
3 132 214 260
3 214 132 134
3 210 5 1
3 68 261 36
3 262 261 68
3 262 263 261
3 264 263 262
3 264 265 263
3 240 265 264
3 240 266 265
3 239 266 240
3 239 267 266
3 268 267 239
3 268 269 267
3 270 269 268
3 235 271 270
3 269 270 271
3 272 67 89
3 272 273 67
3 274 273 272
3 274 275 273
3 276 275 274
3 276 277 275
3 278 277 276
3 278 279 277
3 280 279 278
3 280 281 279
3 282 281 280
3 283 282 284
3 282 283 281
3 285 284 286
3 271 235 286
3 237 286 235
3 284 285 283
3 286 237 285
3 8 216 12
3 225 213 223
3 213 225 212
3 244 287 247
3 287 244 288
3 247 222 224
3 222 247 287
3 289 256 258
3 256 289 290
3 290 226 256
3 226 290 229
3 291 221 231
3 292 231 233
3 221 291 219
3 293 219 291
3 231 292 291
3 233 294 292
3 227 294 233
3 227 295 294
3 229 295 227
3 229 296 295
3 290 296 229
3 290 297 296
3 289 297 290
3 289 298 297
3 215 298 289
3 215 299 298
3 135 299 215
3 299 135 153
3 219 293 288
3 300 288 293
3 300 287 288
3 301 287 300
3 301 222 287
3 302 222 301
3 302 225 222
3 303 225 302
3 303 212 225
3 304 212 303
3 304 208 212
3 305 208 304
3 117 208 305
3 208 117 136
3 66 306 63
3 307 306 66
3 307 308 306
3 309 308 307
3 309 310 308
3 311 310 309
3 311 312 310
3 313 312 311
3 313 314 312
3 315 314 313
3 315 316 314
3 317 316 315
3 318 319 317
3 316 317 319
3 320 31 34
3 320 321 31
3 322 321 320
3 322 323 321
3 324 323 322
3 324 238 323
3 325 238 324
3 325 241 238
3 326 241 325
3 326 327 241
3 328 327 326
3 329 328 330
3 328 329 327
3 236 330 331
3 319 318 331
3 234 331 318
3 330 236 329
3 331 234 236
3 95 97 211
3 109 217 108
3 232 221 218
3 221 232 231
3 313 281 315
3 281 313 279
3 307 67 273
3 67 307 66
3 8 11 216
3 108 217 11
3 220 288 244
3 288 220 219
3 215 258 214
3 258 215 289
3 228 233 230
3 233 228 227
3 236 270 329
3 270 236 235
3 329 268 327
3 268 329 270
3 327 239 241
3 239 327 268
3 323 240 264
3 240 323 238
3 4 5 210
3 31 262 68
3 262 31 321
3 211 97 4
3 315 283 317
3 283 315 281
3 317 285 318
3 285 317 283
3 318 237 234
3 237 318 285
3 311 275 277
3 275 311 309
3 313 277 279
3 277 313 311
3 309 273 275
3 273 309 307
3 321 264 262
3 264 321 323
3 117 252 115
3 252 117 305
3 304 250 251
3 250 304 303
3 295 253 294
3 253 295 254
3 320 36 261
3 36 320 34
3 269 326 267
3 326 269 328
3 301 249 302
3 249 301 248
3 303 249 250
3 249 303 302
3 292 242 291
3 242 292 245
3 299 132 260
3 132 299 153
3 297 259 257
3 259 297 298
3 296 257 255
3 257 296 297
3 284 331 286
3 331 284 319
3 310 278 276
3 278 310 312
3 305 251 252
3 251 305 304
3 291 243 293
3 243 291 242
3 300 248 301
3 248 300 246
3 293 246 300
3 246 293 243
3 298 260 259
3 260 298 299
3 294 245 292
3 245 294 253
3 296 254 295
3 254 296 255
3 322 261 263
3 261 322 320
3 324 263 265
3 263 324 322
3 278 314 280
3 314 278 312
3 63 272 89
3 272 63 306
3 286 330 271
3 330 286 331
3 271 328 269
3 328 271 330
3 280 316 282
3 316 280 314
3 306 274 272
3 274 306 308
3 308 276 274
3 276 308 310
3 267 325 266
3 325 267 326
3 325 265 266
3 265 325 324
3 282 319 284
3 319 282 316
3 332 192 193
3 333 194 195
3 194 333 334
3 335 336 337
3 338 339 340
3 338 341 339
3 342 343 344
3 345 343 342
3 345 346 343
3 347 346 345
3 347 348 346
3 349 348 347
3 349 350 348
3 351 350 349
3 351 352 350
3 352 351 353
3 354 355 351
3 356 357 358
3 359 161 160
3 161 359 360
3 349 354 351
3 347 354 349
3 343 346 357
3 361 362 363
3 364 365 366
3 367 368 369
3 370 371 367
3 372 373 374
3 339 341 354
3 339 354 347
3 353 375 332
3 335 356 358
3 337 343 356
3 358 357 376
3 377 376 378
3 376 377 379
3 360 162 161
3 369 338 340
3 338 369 380
3 371 381 368
3 160 382 359
3 382 160 159
3 368 383 369
3 375 157 158
3 157 375 355
3 155 341 154
3 341 155 354
3 159 341 382
3 341 159 154
3 384 385 336
3 376 364 358
3 364 376 379
3 379 377 386
3 387 198 373
3 198 387 199
3 384 369 340
3 369 384 367
3 368 388 383
3 388 359 383
3 357 389 376
3 156 354 155
3 354 156 355
3 156 157 355
3 390 162 360
3 162 390 163
3 390 197 163
3 197 390 373
3 337 356 335
3 356 343 357
3 340 385 384
3 336 342 337
3 363 381 361
3 335 367 384
3 367 335 370
3 361 371 370
3 379 365 364
3 379 386 365
3 386 333 387
3 333 199 387
3 199 333 195
3 391 359 388
3 365 392 393
3 365 386 392
3 340 339 385
3 384 336 335
3 361 381 371
3 371 368 367
3 380 341 338
3 341 380 382
3 369 383 380
3 334 196 194
3 196 334 394
3 192 375 158
3 375 192 332
3 383 382 380
3 359 382 383
3 385 342 336
3 339 347 385
3 365 362 366
3 358 370 335
3 370 358 364
3 381 395 368
3 364 366 370
3 365 393 362
3 377 333 386
3 373 390 374
3 386 387 392
3 198 197 373
3 374 390 360
3 350 394 348
3 346 348 357
3 337 342 344
3 395 388 368
3 366 362 361
3 370 366 361
3 348 389 357
3 333 378 334
3 378 333 377
3 396 359 391
3 392 387 397
3 362 381 363
3 393 381 362
3 393 395 381
3 392 395 393
3 392 388 395
3 397 388 392
3 397 391 388
3 372 391 397
3 372 396 391
3 396 372 374
3 353 332 352
3 385 345 342
3 385 347 345
3 344 343 337
3 394 334 389
3 352 394 350
3 389 334 378
3 389 378 376
3 374 360 396
3 396 360 359
3 397 387 372
3 387 373 372
3 351 355 353
3 355 375 353
3 348 394 389
3 352 332 394
3 394 193 196
3 193 394 332
3 398 399 400
3 401 402 403
3 404 405 406
3 407 201 200
3 406 405 408
3 409 410 411
3 412 413 414
3 413 412 415
3 416 190 417
3 190 416 191
3 418 399 398
3 419 399 418
3 420 421 422
3 411 423 424
3 200 425 407
3 425 200 202
3 426 189 188
3 189 426 417
3 410 404 423
3 404 410 405
3 400 184 182
3 406 408 399
3 419 406 399
3 427 428 429
3 416 417 430
3 414 431 427
3 432 411 424
3 413 401 403
3 413 433 431
3 434 412 414
3 412 434 435
3 409 405 410
3 405 409 408
3 411 410 423
3 426 411 432
3 426 409 411
3 201 436 183
3 436 201 407
3 399 184 400
3 184 399 185
3 408 185 399
3 185 408 186
3 428 437 429
3 438 437 428
3 438 439 437
3 440 439 438
3 440 441 439
3 442 441 440
3 442 398 441
3 443 398 442
3 443 418 398
3 418 443 419
3 403 402 442
3 413 403 433
3 434 414 427
3 422 206 420
3 206 422 205
3 415 401 413
3 401 415 444
3 420 430 421
3 423 401 444
3 401 423 404
3 445 446 447
3 448 424 444
3 424 423 444
3 182 436 400
3 436 182 183
3 398 400 441
3 204 449 203
3 449 204 450
3 414 413 431
3 401 404 402
3 402 404 406
3 402 406 419
3 451 447 412
3 452 451 435
3 453 454 451
3 454 445 451
3 450 452 455
3 430 417 456
3 420 416 430
3 190 189 417
3 448 444 415
3 446 448 415
3 457 424 448
3 457 448 446
3 434 427 458
3 409 188 187
3 188 409 426
3 409 186 408
3 186 409 187
3 431 433 438
3 433 442 440
3 442 402 443
3 443 402 419
3 451 412 435
3 451 445 447
3 458 429 425
3 449 455 459
3 455 449 450
3 450 422 452
3 205 450 204
3 450 205 422
3 417 426 456
3 456 426 460
3 416 207 191
3 207 416 420
3 206 207 420
3 461 457 446
3 432 424 462
3 445 461 446
3 462 424 457
3 441 400 436
3 441 436 407
3 427 429 458
3 433 403 442
3 427 438 428
3 431 438 427
3 447 446 415
3 447 415 412
3 434 458 459
3 449 202 203
3 202 449 425
3 455 452 435
3 459 435 434
3 435 459 455
3 422 421 463
3 460 426 432
3 463 454 453
3 421 454 463
3 421 445 454
3 430 445 421
3 430 461 445
3 456 461 430
3 456 457 461
3 460 457 456
3 460 462 457
3 462 460 432
3 425 439 407
3 433 440 438
3 429 437 425
3 437 439 425
3 452 453 451
3 422 453 452
3 439 441 407
3 458 425 449
3 459 458 449
3 422 463 453
3 180 464 181
3 178 465 466
3 465 178 174
3 467 468 469
3 470 471 472
3 473 474 475
3 474 473 476
3 470 472 477
3 478 479 480
3 481 476 482
3 483 166 169
3 166 483 484
3 479 485 480
3 485 486 480
3 487 481 488
3 489 490 491
3 492 473 493
3 494 495 496
3 495 497 498
3 499 500 501
3 480 470 477
3 486 470 480
3 464 502 503
3 476 468 482
3 482 467 488
3 474 476 481
3 166 484 164
3 504 477 472
3 477 504 505
3 494 472 471
3 472 494 504
3 496 498 506
3 505 169 167
3 169 505 483
3 507 494 496
3 503 170 171
3 170 503 478
3 477 173 480
3 173 477 168
3 477 167 168
3 167 477 505
3 494 508 495
3 508 494 471
3 469 508 509
3 497 476 473
3 476 497 468
3 510 475 511
3 511 474 512
3 474 511 475
3 176 513 175
3 513 176 501
3 507 496 514
3 483 507 514
3 515 474 481
3 480 172 478
3 172 480 173
3 170 478 172
3 164 516 165
3 516 164 484
3 516 177 165
3 177 516 501
3 482 468 467
3 481 482 488
3 509 508 471
3 517 467 469
3 506 490 489
3 495 468 497
3 468 495 508
3 498 497 490
3 493 473 475
3 493 475 510
3 513 510 465
3 175 465 174
3 465 175 513
3 483 514 518
3 519 493 520
3 520 493 510
3 509 471 470
3 469 468 508
3 498 490 506
3 496 495 498
3 504 494 507
3 179 466 521
3 466 179 178
3 503 181 464
3 181 503 171
3 505 504 507
3 505 507 483
3 517 469 509
3 486 509 470
3 491 492 493
3 522 500 499
3 518 500 522
3 518 523 500
3 514 523 518
3 514 520 523
3 524 520 514
3 524 519 520
3 506 519 524
3 506 491 519
3 491 506 489
3 524 496 506
3 492 497 473
3 491 493 519
3 465 512 466
3 512 465 511
3 465 510 511
3 516 499 501
3 513 520 510
3 177 501 176
3 484 499 516
3 521 525 526
3 525 481 487
3 527 467 517
3 514 496 524
3 491 490 492
3 490 497 492
3 515 481 525
3 483 518 522
3 523 520 513
3 464 528 502
3 517 509 529
3 529 509 486
3 528 479 502
3 526 479 528
3 526 485 479
3 525 485 526
3 525 486 485
3 487 486 525
3 487 529 486
3 488 529 487
3 488 517 529
3 517 488 527
3 488 467 527
3 466 515 521
3 521 526 528
3 512 515 466
3 512 474 515
3 484 522 499
3 483 522 484
3 500 523 513
3 501 500 513
3 502 479 478
3 503 502 478
3 515 525 521
3 521 528 464
3 521 180 179
3 180 521 464
3 530 531 532
3 533 530 532
3 530 533 534
3 531 533 532
3 531 534 533
3 530 534 531
3 535 536 537
3 536 535 538
3 539 540 541
3 539 542 540
3 542 539 543
3 544 541 540
3 541 544 545
3 546 536 547
3 536 546 548
3 538 547 536
3 547 538 549
3 549 538 550
3 541 551 539
3 551 541 552
3 539 553 543
3 539 554 553
3 551 554 539
3 554 551 555
3 556 536 548
3 557 536 556
3 537 557 558
3 557 537 536
3 559 535 560
3 535 559 561
3 537 560 535
3 560 537 562
3 562 537 558
3 552 563 551
3 552 564 563
3 564 552 565
3 566 551 563
3 551 566 555
3 567 541 545
3 568 541 567
3 552 568 565
3 568 552 541
3 538 569 550
3 538 570 569
3 535 570 538
3 570 535 561
3 571 572 573
3 548 574 556
3 574 548 575
3 575 548 546
3 576 577 578
3 579 580 581
3 582 562 583
3 562 582 560
3 584 542 543
3 543 585 584
3 585 543 553
3 586 587 588
3 584 589 590
3 591 592 593
3 580 594 595
3 590 596 597
3 590 597 598
3 599 571 573
3 600 546 547
3 546 600 575
3 601 582 602
3 603 604 605
3 606 607 608
3 609 610 611
3 585 586 584
3 612 613 614
3 615 616 617
3 575 600 618
3 601 561 559
3 619 561 601
3 561 619 570
3 582 559 560
3 559 582 601
3 595 620 621
3 620 595 622
3 557 574 623
3 574 557 556
3 622 624 620
3 624 622 625
3 626 627 628
3 629 545 544
3 630 545 629
3 545 630 567
3 564 631 563
3 631 564 608
3 585 580 586
3 580 585 581
3 587 632 589
3 632 596 589
3 589 596 590
3 586 588 584
3 633 634 594
3 621 587 586
3 635 636 577
3 637 573 638
3 578 577 639
3 640 641 607
3 605 604 642
3 643 572 619
3 572 643 573
3 644 645 646
3 632 647 596
3 645 648 625
3 608 607 649
3 606 592 607
3 629 578 630
3 594 622 595
3 608 649 631
3 634 650 646
3 611 633 579
3 651 565 568
3 565 651 608
3 564 565 608
3 631 566 563
3 566 631 579
3 614 542 584
3 542 614 540
3 584 590 614
3 651 593 608
3 652 575 618
3 588 589 584
3 588 587 589
3 620 653 587
3 654 575 655
3 614 590 612
3 613 656 635
3 657 643 604
3 658 571 599
3 643 601 659
3 592 603 605
3 660 637 661
3 636 661 577
3 662 582 627
3 626 662 627
3 643 619 601
3 549 600 547
3 600 549 571
3 616 600 571
3 592 605 640
3 640 605 663
3 593 606 608
3 593 592 606
3 664 665 645
3 623 654 648
3 654 623 574
3 634 646 594
3 650 644 646
3 666 594 580
3 579 666 580
3 611 667 633
3 633 667 634
3 668 644 669
3 553 581 585
3 581 553 554
3 555 581 554
3 581 555 579
3 579 555 566
3 649 610 609
3 631 611 579
3 614 613 629
3 614 544 540
3 544 614 629
3 630 568 567
3 568 630 651
3 578 651 630
3 651 578 593
3 645 625 622
3 621 620 587
3 653 670 671
3 624 654 672
3 673 660 674
3 617 660 673
3 598 675 613
3 603 657 604
3 657 676 638
3 676 657 603
3 603 639 676
3 639 603 591
3 591 603 592
3 605 642 663
3 640 677 678
3 658 599 637
3 599 573 637
3 661 637 676
3 637 638 676
3 629 576 578
3 635 577 576
3 635 656 636
3 664 583 665
3 644 664 645
3 604 643 659
3 604 659 679
3 619 569 570
3 569 619 572
3 572 550 569
3 550 572 571
3 549 550 571
3 604 679 642
3 642 679 680
3 640 663 677
3 592 640 607
3 583 623 648
3 583 562 558
3 558 623 583
3 623 558 557
3 625 654 624
3 654 625 648
3 634 669 650
3 669 644 650
3 667 681 634
3 663 642 677
3 679 602 680
3 609 611 631
3 631 649 609
3 590 598 612
3 612 598 613
3 580 621 586
3 621 580 595
3 682 670 683
3 684 618 685
3 618 600 686
3 683 670 684
3 670 652 684
3 675 656 613
3 660 658 637
3 617 658 660
3 674 660 687
3 687 660 661
3 591 578 639
3 578 591 593
3 643 638 573
3 638 643 657
3 627 583 664
3 627 582 583
3 633 594 666
3 579 633 666
3 688 667 611
3 610 688 611
3 681 669 634
3 689 602 626
3 640 678 641
3 659 601 679
3 679 601 602
3 594 646 622
3 646 645 622
3 653 671 632
3 587 653 632
3 620 624 672
3 654 574 575
3 686 600 616
3 618 686 690
3 632 682 647
3 652 618 684
3 617 616 658
3 616 571 658
3 656 691 636
3 691 674 636
3 665 583 648
3 665 648 645
3 602 662 626
3 602 582 662
3 692 627 664
3 692 664 644
3 693 688 610
3 641 688 693
3 641 667 688
3 678 667 641
3 678 681 667
3 677 681 678
3 677 669 681
3 694 669 677
3 694 668 669
3 680 668 694
3 680 692 668
3 689 692 680
3 689 628 692
3 628 689 626
3 680 602 689
3 649 641 693
3 607 641 649
3 677 642 694
3 655 575 652
3 672 655 652
3 671 670 682
3 671 682 632
3 672 652 670
3 672 654 655
3 690 686 616
3 690 616 615
3 687 661 636
3 674 687 636
3 661 676 577
3 577 676 639
3 629 635 576
3 613 635 629
3 692 644 668
3 628 627 692
3 649 693 610
3 694 642 680
3 653 672 670
3 620 672 653
3 685 618 690
3 597 675 598
3 596 675 597
3 596 656 675
3 647 656 596
3 647 691 656
3 682 691 647
3 682 674 691
3 683 674 682
3 683 673 674
3 684 673 683
3 684 617 673
3 685 617 684
3 685 615 617
3 615 685 690
