OFF 137 270 0
0.0199995 0 0 
0.019021 0.00617981 0 
0.0799999 0 0.299999 
-0.019021 -0.00617981 0 
-0.0799999 0 0.299999 
-0.0199995 0 0 
0.0760841 -0.0247211 0.299999 
0.019021 -0.00617981 0 
0.0760841 0.0247211 0.299999 
0.0647211 0.0470228 0.299999 
0.0647211 -0.0470228 0.299999 
0.011755 -0.01618 0 
0.01618 -0.011755 0 
0.0470228 -0.0647211 0.299999 
-0.01618 -0.011755 0 
-0.0647211 -0.0470228 0.299999 
0 0.0199995 0 
-0.00617981 0.019021 0 
0 0.0799999 0.299999 
0.00617981 -0.019021 0 
0 -0.0799999 0.299999 
0 -0.0199995 0 
0.01618 0.011755 0 
0.011755 0.01618 0 
0.00617981 0.019021 0 
-0.00617981 -0.019021 0 
-0.011755 -0.01618 0 
-0.011755 0.01618 0 
-0.01618 0.011755 0 
-0.019021 0.00617981 0 
-0.0247211 -0.0760841 0.299999 
-0.0760841 0.0247211 0.299999 
0.0599995 0 0.299999 
0.0570631 0.0185404 0.299999 
0.0570631 -0.0185404 0.299999 
0.0485401 0.0352669 0.299999 
0.0470228 0.0647211 0.299999 
0.0352669 0.0485401 0.299999 
0.0247211 0.0760841 0.299999 
0.0185404 0.0570631 0.299999 
0 0.0599995 0.299999 
-0.0185404 0.0570631 0.299999 
-0.0247211 0.0760841 0.299999 
-0.0352669 0.0485401 0.299999 
-0.0470228 0.0647211 0.299999 
-0.0485401 0.0352669 0.299999 
-0.0647211 0.0470228 0.299999 
-0.0570631 0.0185404 0.299999 
0.0485401 -0.0352669 0.299999 
0.0352669 -0.0485401 0.299999 
0.0247211 -0.0760841 0.299999 
0.0185404 -0.0570631 0.299999 
0 -0.0599995 0.299999 
-0.0185404 -0.0570631 0.299999 
-0.0352669 -0.0485401 0.299999 
-0.0470228 -0.0647211 0.299999 
-0.0485401 -0.0352669 0.299999 
-0.0570631 -0.0185404 0.299999 
-0.0760841 -0.0247211 0.299999 
-0.0599995 0 0.299999 
0.0599995 0 1.3 
0.0570631 0.0185404 1.3 
-0.0570631 0.0185404 1.3 
-0.0599995 0 1.3 
-0.0185404 0.0570631 1.3 
0 0.0599995 1.3 
0.0185404 -0.0570631 1.3 
0 -0.0599995 1.3 
0.0352669 -0.0485401 1.3 
0.0185404 0.0570631 1.3 
0.0352669 0.0485401 1.3 
0.0485401 0.0352669 1.3 
-0.0352669 0.0485401 1.3 
-0.0485401 0.0352669 1.3 
0.12 0 1.3 
0.114126 -0.0370817 1.3 
0.0570631 -0.0185404 1.3 
0.0970812 -0.0705338 1.3 
0.114126 0.0370817 1.3 
0.0485401 -0.0352669 1.3 
0.0705338 -0.0970812 1.3 
0.0970812 0.0705338 1.3 
0.0370817 -0.114126 1.3 
0 -0.12 1.3 
-0.0185404 -0.0570631 1.3 
-0.0370817 -0.114126 1.3 
-0.0352669 -0.0485401 1.3 
-0.0705338 -0.0970812 1.3 
-0.0485401 -0.0352669 1.3 
-0.0970812 -0.0705338 1.3 
-0.0570631 -0.0185404 1.3 
0.0705338 0.0970812 1.3 
0.0370817 0.114126 1.3 
0 0.12 1.3 
-0.0370817 0.114126 1.3 
-0.0705338 0.0970812 1.3 
-0.0970812 0.0705338 1.3 
-0.114126 0.0370817 1.3 
-0.114126 -0.0370817 1.3 
-0.12 0 1.3 
0.12 0 1.4 
0.114126 0.0370817 1.4 
-0.114126 0.0370817 1.4 
-0.12 0 1.4 
0 0.12 1.4 
0.0370817 0.114126 1.4 
0.0970812 0.0705338 1.4 
0.0705338 0.0970812 1.4 
-0.0705338 0.0970812 1.4 
-0.0370817 0.114126 1.4 
0.0799999 0 1.4 
0.0565681 0.0565681 1.4 
0.114126 -0.0370817 1.4 
0.0565681 -0.0565681 1.4 
0 0.0799999 1.4 
-0.0565681 0.0565681 1.4 
-0.0970812 0.0705338 1.4 
0.0970812 -0.0705338 1.4 
0.0705338 -0.0970812 1.4 
0.0370817 -0.114126 1.4 
0 -0.0799999 1.4 
0 -0.12 1.4 
-0.0370817 -0.114126 1.4 
-0.0565681 -0.0565681 1.4 
-0.0705338 -0.0970812 1.4 
-0.114126 -0.0370817 1.4 
-0.0799999 0 1.4 
-0.0970812 -0.0705338 1.4 
0.219999 0 1.65 
0.155563 0.155563 1.65 
0.155563 -0.155563 1.65 
0 -0.219999 1.65 
-0.155563 -0.155563 1.65 
-0.219999 0 1.65 
-0.155563 0.155563 1.65 
0 0.219999 1.65 
0 0 1.95 
3 0 1 2
3 3 4 5
3 6 7 2
3 8 1 9
3 10 11 12
3 11 10 13
3 14 15 3
3 16 17 18
3 2 1 8
3 19 20 21
3 7 1 0
3 12 1 7
3 12 22 1
3 11 22 12
3 11 23 22
3 19 23 11
3 19 24 23
3 21 24 19
3 21 16 24
3 25 16 21
3 25 17 16
3 26 17 25
3 26 27 17
3 14 27 26
3 14 28 27
3 3 28 14
3 3 29 28
3 29 3 5
3 20 30 25
3 29 4 31
3 32 2 8
3 33 8 9
3 2 32 6
3 34 6 32
3 8 33 32
3 9 35 33
3 36 35 9
3 36 37 35
3 38 37 36
3 38 39 37
3 18 39 38
3 18 40 39
3 18 41 40
3 42 41 18
3 42 43 41
3 44 43 42
3 44 45 43
3 46 45 44
3 31 47 46
3 45 46 47
3 6 34 10
3 48 10 34
3 48 13 10
3 49 13 48
3 49 50 13
3 51 50 49
3 52 50 51
3 52 20 50
3 53 20 52
3 53 30 20
3 54 30 53
3 54 55 30
3 56 55 54
3 15 56 57
3 56 15 55
3 58 57 59
3 47 31 59
3 4 59 31
3 57 58 15
3 59 4 58
3 24 18 38
3 10 7 6
3 2 7 0
3 13 19 11
3 15 58 3
3 58 4 3
3 29 31 46
3 27 46 44
3 46 27 28
3 27 44 17
3 5 4 29
3 10 12 7
3 50 19 13
3 50 20 19
3 26 15 14
3 15 26 55
3 30 55 25
3 25 55 26
3 17 44 42
3 17 42 18
3 29 46 28
3 36 24 38
3 23 24 36
3 9 23 36
3 23 9 22
3 1 22 9
3 20 25 21
3 24 16 18
3 60 33 61
3 33 60 32
3 59 62 47
3 62 59 63
3 40 64 65
3 64 40 41
3 52 66 67
3 66 52 51
3 51 68 66
3 68 51 49
3 37 69 70
3 69 37 39
3 61 35 71
3 35 61 33
3 39 65 69
3 65 39 40
3 45 72 43
3 72 45 73
3 47 73 45
3 73 47 62
3 60 74 75
3 76 75 77
3 74 60 78
3 79 77 80
3 61 78 60
3 78 61 81
3 75 76 60
3 77 79 76
3 68 80 82
3 80 68 79
3 82 66 68
3 83 66 82
3 83 67 66
3 83 84 67
3 85 84 83
3 84 85 86
3 87 86 85
3 86 87 88
3 88 89 90
3 89 88 87
3 71 81 61
3 81 71 91
3 70 91 71
3 91 70 92
3 69 92 70
3 65 92 69
3 65 93 92
3 64 93 65
3 94 64 72
3 64 94 93
3 95 72 73
3 96 73 62
3 72 95 94
3 97 62 63
3 98 90 89
3 90 98 63
3 73 96 95
3 99 63 98
3 62 97 96
3 63 99 97
3 41 72 64
3 72 41 43
3 76 32 60
3 32 76 34
3 71 37 70
3 37 71 35
3 68 48 79
3 48 68 49
3 56 90 57
3 90 56 88
3 57 63 59
3 63 57 90
3 79 34 76
3 34 79 48
3 53 67 84
3 67 53 52
3 54 88 56
3 88 54 86
3 54 84 86
3 84 54 53
3 100 78 101
3 78 100 74
3 99 102 97
3 102 99 103
3 92 104 105
3 104 92 93
3 106 91 107
3 91 106 81
3 101 81 106
3 81 101 78
3 91 105 107
3 105 91 92
3 94 108 109
3 108 94 95
3 110 100 101
3 111 101 106
3 100 110 112
3 113 112 110
3 111 106 107
3 101 111 110
3 105 111 107
3 114 105 104
3 105 114 111
3 109 114 104
3 109 115 114
3 108 115 109
3 116 115 108
3 102 115 116
3 112 113 117
3 117 113 118
3 113 119 118
3 120 119 113
3 120 121 119
3 120 122 121
3 123 122 120
3 123 124 122
3 125 123 126
3 115 102 126
3 123 127 124
3 103 126 102
3 123 125 127
3 126 103 125
3 93 109 104
3 109 93 94
3 98 103 99
3 103 98 125
3 96 108 95
3 108 96 116
3 97 116 96
3 116 97 102
3 83 119 121
3 119 83 82
3 117 75 112
3 75 117 77
3 87 127 89
3 127 87 124
3 85 121 122
3 121 85 83
3 89 125 98
3 125 89 127
3 82 118 119
3 118 82 80
3 112 74 100
3 74 112 75
3 87 122 124
3 122 87 85
3 118 77 117
3 77 118 80
3 128 110 129
3 110 111 129
3 130 113 110
3 130 110 128
3 131 132 120
3 120 132 123
3 132 133 126
3 115 134 114
3 126 133 134
3 126 134 115
3 114 134 135
3 130 120 113
3 130 131 120
3 123 132 126
3 129 114 135
3 111 114 129
3 129 136 128
3 136 133 132
3 134 133 136
3 136 131 130
3 135 134 136
3 135 136 129
3 136 132 131
3 128 136 130
