OFF 56 108 0
0 0.191686 -0.0299997 
0 1 0.0299997 
0 1 -0.0299997 
0 0.191686 0.0299997 
1 0.0999994 0.0299997 
0.219999 0.0799999 0.0299997 
1 0 0.0299997 
0.216021 0.0999994 0.0299997 
0.209343 0.0264235 0.0299997 
0.191686 0 0.0299997 
0.0999994 1 0.0299997 
0.0799999 0.219999 0.0299997 
0.0999994 0.216021 0.0299997 
0.0264235 0.209343 0.0299997 
1 0.0999994 -0.0299997 
1 0 -0.0299997 
0.219999 0.0799999 -0.0299997 
0.209343 0.0264235 -0.0299997 
0.191686 0 -0.0299997 
0.216021 0.0999994 -0.0299997 
0.0799999 0.219999 -0.0299997 
0.0999994 1 -0.0299997 
0.0999994 0.216021 -0.0299997 
0.0264235 0.209343 -0.0299997 
0.209343 0.133575 0.04 
0.209343 0.133575 -0.04 
0.219999 0.0799999 0.04 
0.219999 0.0799999 -0.04 
0.133575 0.209343 0.04 
0.0799999 0.219999 0.04 
0.133575 0.209343 -0.04 
0.0799999 0.219999 -0.04 
-0.0493431 0.0264235 -0.04 
-0.0599995 0.0799999 0.04 
-0.0599995 0.0799999 -0.04 
-0.0493431 0.0264235 0.04 
0.133575 -0.0493431 -0.04 
0.178994 -0.0189943 0.04 
0.133575 -0.0493431 0.04 
0.178994 -0.0189943 -0.04 
0.0799999 -0.0599995 -0.04 
0.0799999 -0.0599995 0.04 
0.178994 0.178994 -0.04 
0.178994 0.178994 0.04 
0.0264235 0.209343 -0.04 
0.0264235 0.209343 0.04 
0.209343 0.0264235 -0.04 
0.0264235 -0.0493431 -0.04 
-0.0189943 -0.0189943 -0.04 
-0.0189943 0.178994 -0.04 
-0.0493431 0.133575 -0.04 
-0.0189943 0.178994 0.04 
-0.0493431 0.133575 0.04 
-0.0189943 -0.0189943 0.04 
0.0264235 -0.0493431 0.04 
0.209343 0.0264235 0.04 
3 0 1 2
3 1 0 3
3 4 5 6
3 5 4 7
3 8 6 5
3 6 8 9
3 10 11 12
3 1 11 10
3 11 1 13
3 13 1 3
3 6 14 4
3 14 6 15
3 15 16 14
3 15 17 16
3 17 15 18
3 14 16 19
3 20 21 22
3 2 20 23
3 2 23 0
3 20 2 21
3 18 6 9
3 6 18 15
3 14 7 4
3 7 14 19
3 12 21 10
3 21 12 22
3 21 1 10
3 1 21 2
3 24 7 25
3 26 7 24
3 7 26 5
3 19 25 7
3 27 19 16
3 19 27 25
3 28 12 29
3 28 22 12
3 30 22 28
3 31 22 30
3 22 31 20
3 29 12 11
3 32 33 34
3 33 32 35
3 36 37 38
3 37 36 39
3 40 38 41
3 38 40 36
3 42 28 43
3 28 42 30
3 24 42 43
3 42 24 25
3 31 23 20
3 23 31 44
3 11 45 29
3 45 11 13
3 46 25 27
3 39 25 46
3 39 42 25
3 36 42 39
3 36 30 42
3 40 30 36
3 40 31 30
3 47 31 40
3 47 44 31
3 48 44 47
3 48 49 44
3 32 49 48
3 32 50 49
3 50 32 34
3 23 44 0
3 3 45 13
3 45 3 51
3 0 51 3
3 0 49 51
3 49 0 44
3 50 51 49
3 51 50 52
3 48 35 32
3 35 48 53
3 47 41 54
3 41 47 40
3 24 55 26
3 43 55 24
3 43 37 55
3 28 37 43
3 28 38 37
3 29 38 28
3 29 41 38
3 45 41 29
3 45 54 41
3 51 54 45
3 51 53 54
3 52 53 51
3 52 35 53
3 35 52 33
3 34 52 50
3 52 34 33
3 55 9 8
3 9 37 18
3 37 9 55
3 18 46 17
3 18 39 46
3 39 18 37
3 17 27 16
3 27 17 46
3 55 5 26
3 5 55 8
3 48 54 53
3 54 48 47
